<svg width="18" height="18" viewBox="0 0 18 18" fill="none" xmlns="http://www.w3.org/2000/svg">
<path fill-rule="evenodd" clip-rule="evenodd" d="M9 2.125C5.20304 2.125 2.125 5.20304 2.125 9C2.125 12.797 5.20304 15.875 9 15.875C12.797 15.875 15.875 12.797 15.875 9C15.875 5.20304 12.797 2.125 9 2.125ZM0.875 9C0.875 4.51269 4.51269 0.875 9 0.875C13.4873 0.875 17.125 4.51269 17.125 9C17.125 13.4873 13.4873 17.125 9 17.125C4.51269 17.125 0.875 13.4873 0.875 9ZM9 5.875C9.34518 5.875 9.625 6.15482 9.625 6.5V8.375H11.5C11.8452 8.375 12.125 8.65482 12.125 9C12.125 9.34518 11.8452 9.625 11.5 9.625H9.625V11.5C9.625 11.8452 9.34518 12.125 9 12.125C8.65482 12.125 8.375 11.8452 8.375 11.5V9.625H6.5C6.15482 9.625 5.875 9.34518 5.875 9C5.875 8.65482 6.15482 8.375 6.5 8.375H8.375V6.5C8.375 6.15482 8.65482 5.875 9 5.875Z" fill="#3388E0"/>
</svg>
