<svg width="106" height="32" viewBox="0 0 106 32" fill="none" xmlns="http://www.w3.org/2000/svg">
<g clip-path="url(#clip0_79_2252)">
<path d="M11.9489 5.49553L19.7938 3.01764V26.2796L11.9489 28.9415V5.49553ZM29.9877 32C31.0923 32 31.9877 31.1046 31.9877 30V2C31.9877 0.895429 31.0923 0 29.9877 0H2C0.895431 0 0 0.895431 0 2V30C0 31.1046 0.895431 32 2 32H29.9877Z" fill="white"/>
</g>
<path d="M47.6633 30.2137C47.0777 30.2137 46.4867 30.1924 45.8904 30.1498C45.2942 30.1179 44.7724 30.0433 44.3252 29.9262V19.1771C44.5594 19.1346 44.8097 19.0973 45.0759 19.0653C45.3421 19.0228 45.6136 18.9908 45.8904 18.9695C46.1673 18.9482 46.4388 18.9322 46.705 18.9216C46.9818 18.911 47.2427 18.9056 47.4876 18.9056C48.1584 18.9056 48.7813 18.9589 49.3563 19.0653C49.9313 19.1612 50.4264 19.3262 50.8417 19.5605C51.2676 19.7947 51.5977 20.1035 51.832 20.4868C52.0662 20.8702 52.1833 21.344 52.1833 21.9083C52.1833 22.4301 52.0556 22.8773 51.8 23.25C51.5551 23.6226 51.2091 23.9208 50.7618 24.1444C51.4327 24.368 51.9278 24.6981 52.2472 25.1346C52.5667 25.5712 52.7264 26.1249 52.7264 26.7957C52.7264 27.935 52.3111 28.7922 51.4806 29.3672C50.65 29.9315 49.3776 30.2137 47.6633 30.2137ZM46.3057 25.1027V28.4728C46.5293 28.4941 46.7689 28.51 47.0244 28.5207C47.28 28.5313 47.5142 28.5366 47.7272 28.5366C48.1425 28.5366 48.5258 28.51 48.8772 28.4568C49.2392 28.4035 49.548 28.313 49.8035 28.1853C50.0697 28.0468 50.2774 27.8658 50.4264 27.6422C50.5862 27.4186 50.666 27.1311 50.666 26.7797C50.666 26.1515 50.4371 25.715 49.9792 25.4701C49.5214 25.2251 48.8878 25.1027 48.0786 25.1027H46.3057ZM46.3057 23.5215H47.7272C48.4938 23.5215 49.0954 23.415 49.532 23.2021C49.9686 22.9784 50.1869 22.5845 50.1869 22.0201C50.1869 21.4877 49.9579 21.1097 49.5001 20.8861C49.0529 20.6625 48.4672 20.5507 47.7432 20.5507C47.4344 20.5507 47.1575 20.5561 46.9126 20.5667C46.6784 20.5773 46.4761 20.5933 46.3057 20.6146V23.5215Z" fill="white"/>
<path d="M61.2749 29.8304C60.9023 29.9262 60.4178 30.022 59.8215 30.1179C59.2252 30.2243 58.5704 30.2776 57.857 30.2776C57.1861 30.2776 56.6218 30.1817 56.1639 29.9901C55.7167 29.7984 55.3547 29.5322 55.0779 29.1915C54.8117 28.8508 54.62 28.4461 54.5029 27.9776C54.3857 27.4985 54.3272 26.9767 54.3272 26.4124V21.7326H56.2598V26.1089C56.2598 27.0033 56.3875 27.6422 56.6431 28.0255C56.9093 28.4089 57.3672 28.6005 58.0167 28.6005C58.2509 28.6005 58.4958 28.5899 58.7514 28.5686C59.0176 28.5473 59.2146 28.5207 59.3423 28.4887V21.7326H61.2749V29.8304Z" fill="white"/>
<path d="M65.5236 28.6964C66.0347 28.6964 66.4073 28.6378 66.6416 28.5207C66.8758 28.3929 66.993 28.1799 66.993 27.8818C66.993 27.605 66.8652 27.376 66.6096 27.195C66.3647 27.014 65.9548 26.817 65.3798 26.6041C65.0284 26.4763 64.7037 26.3432 64.4055 26.2048C64.118 26.0557 63.8678 25.8853 63.6549 25.6937C63.4419 25.502 63.2715 25.2731 63.1438 25.0069C63.0266 24.73 62.9681 24.3946 62.9681 24.0006C62.9681 23.234 63.2502 22.6324 63.8146 22.1958C64.3789 21.7486 65.1456 21.525 66.1145 21.525C66.6043 21.525 67.0728 21.5729 67.52 21.6688C67.9673 21.7539 68.3027 21.8391 68.5263 21.9243L68.1749 23.4895C67.9619 23.3937 67.6904 23.3085 67.3603 23.234C67.0302 23.1488 66.6469 23.1062 66.2103 23.1062C65.8164 23.1062 65.4969 23.1754 65.252 23.3139C65.0071 23.4416 64.8847 23.6439 64.8847 23.9208C64.8847 24.0592 64.906 24.1817 64.9486 24.2881C65.0018 24.3946 65.087 24.4958 65.2041 24.5916C65.3212 24.6768 65.4756 24.7673 65.6673 24.8631C65.859 24.9483 66.0932 25.0388 66.3701 25.1346C66.8279 25.305 67.2166 25.4754 67.536 25.6457C67.8554 25.8055 68.1163 25.9918 68.3186 26.2048C68.5316 26.4071 68.686 26.6413 68.7818 26.9075C68.8776 27.1737 68.9256 27.4931 68.9256 27.8658C68.9256 28.6644 68.6274 29.2713 68.0311 29.6866C67.4455 30.0912 66.6043 30.2935 65.5076 30.2935C64.7729 30.2935 64.1819 30.2297 63.7347 30.1019C63.2875 29.9848 62.9734 29.8889 62.7924 29.8144L63.1278 28.2012C63.4153 28.3184 63.756 28.4302 64.15 28.5366C64.5546 28.6431 65.0125 28.6964 65.5236 28.6964Z" fill="white"/>
<path d="M72.376 30.0859H70.4434V21.7326H72.376V30.0859ZM72.5836 19.289C72.5836 19.651 72.4665 19.9385 72.2322 20.1514C71.998 20.3644 71.7211 20.4709 71.4017 20.4709C71.0716 20.4709 70.7894 20.3644 70.5552 20.1514C70.3209 19.9385 70.2038 19.651 70.2038 19.289C70.2038 18.9163 70.3209 18.6235 70.5552 18.4105C70.7894 18.1975 71.0716 18.0911 71.4017 18.0911C71.7211 18.0911 71.998 18.1975 72.2322 18.4105C72.4665 18.6235 72.5836 18.9163 72.5836 19.289Z" fill="white"/>
<path d="M74.538 22.0042C74.9107 21.8977 75.3952 21.7965 75.9915 21.7007C76.5878 21.6049 77.2479 21.557 77.972 21.557C78.6534 21.557 79.2231 21.6528 79.681 21.8444C80.1388 22.0255 80.5009 22.2863 80.767 22.6271C81.0439 22.9571 81.2356 23.3618 81.342 23.8409C81.4592 24.3094 81.5177 24.8259 81.5177 25.3902V30.0859H79.5851V25.6937C79.5851 25.2464 79.5532 24.8684 79.4893 24.5597C79.4361 24.2402 79.3402 23.9847 79.2018 23.793C79.074 23.5907 78.893 23.447 78.6588 23.3618C78.4352 23.2659 78.1583 23.218 77.8282 23.218C77.5833 23.218 77.3278 23.234 77.0616 23.2659C76.7954 23.2979 76.5984 23.3245 76.4706 23.3458V30.0859H74.538V22.0042Z" fill="white"/>
<path d="M83.1143 25.9492C83.1143 25.2145 83.2208 24.5703 83.4337 24.0166C83.6573 23.4629 83.9501 23.0051 84.3122 22.643C84.6742 22.2704 85.0895 21.9935 85.558 21.8125C86.0265 21.6208 86.5056 21.525 86.9954 21.525C88.1454 21.525 89.0398 21.8817 89.6787 22.5951C90.3282 23.3085 90.653 24.3733 90.653 25.7895C90.653 25.896 90.6477 26.0184 90.637 26.1568C90.637 26.2846 90.6317 26.4017 90.621 26.5082H85.1108C85.164 27.179 85.3983 27.7008 85.8135 28.0735C86.2394 28.4355 86.8517 28.6165 87.6503 28.6165C88.1188 28.6165 88.5447 28.5739 88.928 28.4887C89.322 28.4035 89.6308 28.313 89.8544 28.2172L90.1099 29.7984C90.0035 29.8517 89.8544 29.9102 89.6627 29.9741C89.4817 30.0273 89.2688 30.0753 89.0239 30.1179C88.7896 30.1711 88.5341 30.2137 88.2572 30.2456C87.9804 30.2776 87.6982 30.2935 87.4107 30.2935C86.676 30.2935 86.0371 30.1871 85.4941 29.9741C84.951 29.7505 84.5038 29.447 84.1525 29.0637C83.8011 28.6697 83.5402 28.2119 83.3698 27.6901C83.1995 27.1577 83.1143 26.5774 83.1143 25.9492ZM88.7204 25.0867C88.7204 24.8205 88.6831 24.5703 88.6086 24.3361C88.5341 24.0911 88.4223 23.8835 88.2732 23.7131C88.1348 23.5321 87.9591 23.3937 87.7461 23.2979C87.5438 23.1914 87.2989 23.1382 87.0114 23.1382C86.7133 23.1382 86.4524 23.1967 86.2288 23.3139C86.0052 23.4203 85.8135 23.5641 85.6538 23.7451C85.5047 23.9261 85.3876 24.1337 85.3024 24.368C85.2172 24.6022 85.1587 24.8418 85.1267 25.0867H88.7204Z" fill="white"/>
<path d="M94.4908 28.6964C95.0019 28.6964 95.3746 28.6378 95.6089 28.5207C95.8431 28.3929 95.9603 28.1799 95.9603 27.8818C95.9603 27.605 95.8325 27.376 95.5769 27.195C95.332 27.014 94.9221 26.817 94.3471 26.6041C93.9957 26.4763 93.671 26.3432 93.3728 26.2048C93.0853 26.0557 92.8351 25.8853 92.6221 25.6937C92.4092 25.502 92.2388 25.2731 92.111 25.0069C91.9939 24.73 91.9354 24.3946 91.9354 24.0006C91.9354 23.234 92.2175 22.6324 92.7819 22.1958C93.3462 21.7486 94.1128 21.525 95.0818 21.525C95.5716 21.525 96.0401 21.5729 96.4873 21.6688C96.9345 21.7539 97.2699 21.8391 97.4935 21.9243L97.1422 23.4895C96.9292 23.3937 96.6577 23.3085 96.3276 23.234C95.9975 23.1488 95.6142 23.1062 95.1776 23.1062C94.7837 23.1062 94.4642 23.1754 94.2193 23.3139C93.9744 23.4416 93.852 23.6439 93.852 23.9208C93.852 24.0592 93.8733 24.1817 93.9159 24.2881C93.9691 24.3946 94.0543 24.4958 94.1714 24.5916C94.2885 24.6768 94.4429 24.7673 94.6346 24.8631C94.8263 24.9483 95.0605 25.0388 95.3374 25.1346C95.7952 25.305 96.1839 25.4754 96.5033 25.6457C96.8227 25.8055 97.0836 25.9918 97.2859 26.2048C97.4989 26.4071 97.6533 26.6413 97.7491 26.9075C97.8449 27.1737 97.8928 27.4931 97.8928 27.8658C97.8928 28.6644 97.5947 29.2713 96.9984 29.6866C96.4128 30.0912 95.5716 30.2935 94.4749 30.2935C93.7402 30.2935 93.1492 30.2297 92.702 30.1019C92.2548 29.9848 91.9407 29.8889 91.7597 29.8144L92.0951 28.2012C92.3826 28.3184 92.7233 28.4302 93.1173 28.5366C93.5219 28.6431 93.9797 28.6964 94.4908 28.6964Z" fill="white"/>
<path d="M101.487 28.6964C101.998 28.6964 102.371 28.6378 102.605 28.5207C102.839 28.3929 102.956 28.1799 102.956 27.8818C102.956 27.605 102.829 27.376 102.573 27.195C102.328 27.014 101.918 26.817 101.343 26.6041C100.992 26.4763 100.667 26.3432 100.369 26.2048C100.081 26.0557 99.8313 25.8853 99.6183 25.6937C99.4053 25.502 99.235 25.2731 99.1072 25.0069C98.9901 24.73 98.9315 24.3946 98.9315 24.0006C98.9315 23.234 99.2137 22.6324 99.778 22.1958C100.342 21.7486 101.109 21.525 102.078 21.525C102.568 21.525 103.036 21.5729 103.483 21.6688C103.931 21.7539 104.266 21.8391 104.49 21.9243L104.138 23.4895C103.925 23.3937 103.654 23.3085 103.324 23.234C102.994 23.1488 102.61 23.1062 102.174 23.1062C101.78 23.1062 101.46 23.1754 101.215 23.3139C100.971 23.4416 100.848 23.6439 100.848 23.9208C100.848 24.0592 100.869 24.1817 100.912 24.2881C100.965 24.3946 101.05 24.4958 101.168 24.5916C101.285 24.6768 101.439 24.7673 101.631 24.8631C101.822 24.9483 102.057 25.0388 102.334 25.1346C102.791 25.305 103.18 25.4754 103.499 25.6457C103.819 25.8055 104.08 25.9918 104.282 26.2048C104.495 26.4071 104.649 26.6413 104.745 26.9075C104.841 27.1737 104.889 27.4931 104.889 27.8658C104.889 28.6644 104.591 29.2713 103.995 29.6866C103.409 30.0912 102.568 30.2935 101.471 30.2935C100.736 30.2935 100.145 30.2297 99.6982 30.1019C99.2509 29.9848 98.9368 29.8889 98.7558 29.8144L99.0912 28.2012C99.3787 28.3184 99.7195 28.4302 100.113 28.5366C100.518 28.6431 100.976 28.6964 101.487 28.6964Z" fill="white"/>
<path d="M51.8808 15.0001C51.6785 14.4571 51.4868 13.9353 51.3058 13.4349C51.1248 12.9344 50.9491 12.4446 50.7787 11.9655H45.3962C45.2152 12.4446 45.0342 12.9344 44.8532 13.4349C44.6722 13.9353 44.4858 14.4571 44.2942 15.0001H43.1602C43.5861 13.8501 43.9854 12.78 44.358 11.7898C44.7307 10.7889 45.0927 9.84652 45.4441 8.96275C45.8062 8.06832 46.1629 7.21117 46.5142 6.39128C46.8656 5.57139 47.2383 4.75151 47.6323 3.93162H48.5906C48.9846 4.75151 49.3572 5.57139 49.7086 6.39128C50.06 7.21117 50.4114 8.06832 50.7627 8.96275C51.1248 9.84652 51.4921 10.7889 51.8648 11.7898C52.2375 12.78 52.6421 13.8501 53.0787 15.0001H51.8808ZM48.0795 5.17742C47.6749 6.09314 47.2809 7.02483 46.8976 7.97249C46.5249 8.92016 46.1362 9.94235 45.7316 11.0391H50.4433C50.0387 9.94235 49.6447 8.92016 49.2614 7.97249C48.8781 7.02483 48.4841 6.09314 48.0795 5.17742Z" fill="white"/>
<path d="M56.3948 15.1438C56.0434 15.1332 55.7346 15.0853 55.4684 15.0001C55.2129 14.9256 54.9946 14.8084 54.8136 14.6487C54.6432 14.4784 54.5101 14.2654 54.4143 14.0098C54.3291 13.7436 54.2865 13.4136 54.2865 13.0196V2.79762L55.3247 2.60596V12.9876C55.3247 13.2432 55.346 13.4508 55.3886 13.6105C55.4418 13.7596 55.5164 13.8821 55.6122 13.9779C55.708 14.0631 55.8305 14.127 55.9795 14.1696C56.1393 14.2122 56.3256 14.2494 56.5386 14.2814L56.3948 15.1438Z" fill="white"/>
<path d="M59.1082 15.0001H58.07V6.74266H59.1082V15.0001ZM59.3477 4.25106C59.3477 4.49596 59.2732 4.69294 59.1241 4.84201C58.9751 4.98044 58.794 5.04965 58.5811 5.04965C58.3681 5.04965 58.1871 4.98044 58.038 4.84201C57.889 4.69294 57.8144 4.49596 57.8144 4.25106C57.8144 4.00615 57.889 3.81449 58.038 3.67607C58.1871 3.527 58.3681 3.45246 58.5811 3.45246C58.794 3.45246 58.9751 3.527 59.1241 3.67607C59.2732 3.81449 59.3477 4.00615 59.3477 4.25106Z" fill="white"/>
<path d="M61.5567 7.03015C61.8655 6.94497 62.2808 6.84914 62.8025 6.74266C63.3243 6.63618 63.9631 6.58294 64.7191 6.58294C65.3474 6.58294 65.8691 6.67345 66.2844 6.85446C66.7103 7.03548 67.0457 7.29635 67.2906 7.63708C67.5461 7.96717 67.7272 8.36646 67.8336 8.83497C67.9401 9.30348 67.9934 9.8199 67.9934 10.3842V15.0001H66.9552V10.7196C66.9552 10.134 66.9126 9.63889 66.8274 9.23427C66.7529 8.82965 66.6198 8.49956 66.4281 8.24401C66.2471 7.98846 66.0022 7.80745 65.6934 7.70097C65.3953 7.58384 65.0173 7.52528 64.5594 7.52528C64.0696 7.52528 63.6437 7.5519 63.2817 7.60514C62.9303 7.65838 62.7014 7.7063 62.5949 7.74889V15.0001H61.5567V7.03015Z" fill="white"/>
<path d="M70.3466 7.03015C70.6554 6.94497 71.0547 6.84914 71.5445 6.74266C72.0449 6.63618 72.6891 6.58294 73.4771 6.58294C74.5206 6.58294 75.2766 6.88641 75.7451 7.49334C75.7983 7.45075 75.8995 7.38154 76.0485 7.2857C76.2082 7.17922 76.4052 7.07275 76.6395 6.96627C76.8737 6.85979 77.1453 6.76928 77.454 6.69475C77.7735 6.62021 78.1249 6.58294 78.5082 6.58294C79.1364 6.58294 79.6422 6.67877 80.0255 6.87044C80.4195 7.05145 80.7229 7.31232 80.9359 7.65306C81.1489 7.98314 81.2926 8.38244 81.3671 8.85094C81.4417 9.31945 81.479 9.83055 81.479 10.3842V15.0001H80.4408V10.7196C80.4408 10.1766 80.4142 9.7081 80.3609 9.31413C80.3183 8.90951 80.2225 8.57942 80.0734 8.32387C79.935 8.05768 79.7327 7.86069 79.4665 7.73292C79.2003 7.59449 78.8542 7.52528 78.4283 7.52528C78.1089 7.52528 77.8161 7.55722 77.5499 7.62111C77.2943 7.67435 77.0707 7.74356 76.8791 7.82875C76.6874 7.91393 76.5277 7.99911 76.3999 8.0843C76.2828 8.16948 76.1976 8.23337 76.1444 8.27596C76.2402 8.5528 76.3094 8.86692 76.352 9.2183C76.4052 9.55903 76.4319 9.92106 76.4319 10.3044V15.0001H75.3937V10.7196C75.3937 10.1766 75.3671 9.7081 75.3138 9.31413C75.2712 8.90951 75.1754 8.57942 75.0263 8.32387C74.8773 8.05768 74.6643 7.86069 74.3875 7.73292C74.1213 7.59449 73.7646 7.52528 73.3173 7.52528C72.8169 7.52528 72.391 7.5519 72.0396 7.60514C71.6989 7.65838 71.4806 7.7063 71.3848 7.74889V15.0001H70.3466V7.03015Z" fill="white"/>
<path d="M86.4347 14.2494C86.8393 14.2494 87.1907 14.2388 87.4889 14.2175C87.7976 14.1855 88.0585 14.1483 88.2715 14.1057V11.1988C88.1543 11.1456 87.968 11.0923 87.7125 11.0391C87.4569 10.9752 87.1055 10.9433 86.6583 10.9433C86.4028 10.9433 86.1366 10.9645 85.8597 11.0071C85.5829 11.0391 85.3273 11.1189 85.0931 11.2467C84.8588 11.3638 84.6672 11.5289 84.5181 11.7418C84.369 11.9548 84.2945 12.237 84.2945 12.5884C84.2945 12.8971 84.3424 13.158 84.4382 13.371C84.5447 13.5839 84.6885 13.7543 84.8695 13.8821C85.0611 14.0098 85.2847 14.1057 85.5403 14.1696C85.8065 14.2228 86.1046 14.2494 86.4347 14.2494ZM86.3389 6.551C86.8819 6.551 87.3398 6.63086 87.7125 6.79058C88.0958 6.93965 88.4046 7.15261 88.6388 7.42945C88.8731 7.69565 89.0434 8.01508 89.1499 8.38776C89.2564 8.76044 89.3096 9.16506 89.3096 9.60162V14.8084C89.2032 14.8404 89.0488 14.8776 88.8465 14.9202C88.6441 14.9522 88.4099 14.9895 88.1437 15.032C87.8775 15.0746 87.5794 15.1066 87.2493 15.1279C86.9298 15.1598 86.5998 15.1758 86.259 15.1758C85.8225 15.1758 85.4178 15.1279 85.0452 15.032C84.6831 14.9362 84.3637 14.7871 84.0869 14.5848C83.8207 14.3719 83.6077 14.1057 83.448 13.7862C83.2989 13.4562 83.2244 13.0569 83.2244 12.5884C83.2244 12.1411 83.3096 11.7578 83.4799 11.4384C83.6503 11.1189 83.8899 10.8581 84.1987 10.6558C84.5074 10.4428 84.8748 10.2884 85.3007 10.1926C85.7266 10.0967 86.1898 10.0488 86.6903 10.0488C86.8393 10.0488 86.9937 10.0595 87.1534 10.0808C87.3238 10.0914 87.4835 10.1127 87.6326 10.1447C87.7923 10.166 87.9254 10.1926 88.0319 10.2245C88.149 10.2458 88.2289 10.2671 88.2715 10.2884V9.77731C88.2715 9.48982 88.2502 9.21297 88.2076 8.94677C88.165 8.66993 88.0692 8.42503 87.9201 8.21207C87.7817 7.98846 87.5794 7.81277 87.3132 7.685C87.0576 7.54658 86.7169 7.47737 86.291 7.47737C85.684 7.47737 85.2315 7.51996 84.9334 7.60514C84.6352 7.69032 84.4169 7.75953 84.2785 7.81277L84.1348 6.90238C84.3158 6.8172 84.5926 6.73734 84.9653 6.6628C85.3486 6.58827 85.8065 6.551 86.3389 6.551Z" fill="white"/>
<defs>
<clipPath id="clip0_79_2252">
<rect width="32" height="32" rx="1" fill="white"/>
</clipPath>
</defs>
</svg>
