<svg width="25" height="24" viewBox="0 0 25 24" fill="none" xmlns="http://www.w3.org/2000/svg">
<path fill-rule="evenodd" clip-rule="evenodd" d="M12.251 2.37596C12.503 2.20801 12.8312 2.20801 13.0831 2.37596L22.0831 8.37596C22.4277 8.60573 22.5209 9.07138 22.2911 9.41603C22.0613 9.76067 21.5957 9.8538 21.251 9.62404L12.6671 3.90139L4.0831 9.62404C3.73845 9.8538 3.2728 9.76067 3.04303 9.41603C2.81327 9.07138 2.9064 8.60573 3.25105 8.37596L12.251 2.37596ZM11.9171 6.75C11.9171 6.33579 12.2529 6 12.6671 6H12.6746C13.0888 6 13.4246 6.33579 13.4246 6.75V6.7575C13.4246 7.17171 13.0888 7.5075 12.6746 7.5075H12.6671C12.2529 7.5075 11.9171 7.17171 11.9171 6.7575V6.75ZM5.91707 10.9784V20.25H8.16707V12.75C8.16707 12.3358 8.50286 12 8.91707 12C9.33129 12 9.66707 12.3358 9.66707 12.75V20.25H11.9171V12.75C11.9171 12.3358 12.2529 12 12.6671 12C13.0813 12 13.4171 12.3358 13.4171 12.75V20.25H15.6671V12.75C15.6671 12.3358 16.0029 12 16.4171 12C16.8313 12 17.1671 12.3358 17.1671 12.75V20.25H19.4171V10.9784C17.2129 10.6632 14.9592 10.5 12.6671 10.5C10.3749 10.5 8.12128 10.6632 5.91707 10.9784ZM20.9171 20.25V10.3325C20.9171 9.96317 20.6482 9.64882 20.2833 9.59157C17.8013 9.20211 15.2575 9 12.6671 9C10.0766 9 7.53285 9.20211 5.05081 9.59157C4.68595 9.64882 4.41707 9.96317 4.41707 10.3325V20.25H3.66707C3.25286 20.25 2.91707 20.5858 2.91707 21C2.91707 21.4142 3.25286 21.75 3.66707 21.75H21.6671C22.0813 21.75 22.4171 21.4142 22.4171 21C22.4171 20.5858 22.0813 20.25 21.6671 20.25H20.9171Z" fill="#3388E0"/>
</svg>
