<svg width="14" height="14" viewBox="0 0 14 14" fill="none" xmlns="http://www.w3.org/2000/svg">
<path fill-rule="evenodd" clip-rule="evenodd" d="M3.5 0.5C3.77614 0.5 4 0.723858 4 1V2H10V1C10 0.723858 10.2239 0.5 10.5 0.5C10.7761 0.5 11 0.723858 11 1V2H11.5C12.6046 2 13.5 2.89543 13.5 4V11.5C13.5 12.6046 12.6046 13.5 11.5 13.5H2.5C1.39543 13.5 0.5 12.6046 0.5 11.5V4C0.5 2.89543 1.39543 2 2.5 2H3V1C3 0.723858 3.22386 0.5 3.5 0.5ZM2.5 3C1.94772 3 1.5 3.44772 1.5 4V4.76756C1.79417 4.59739 2.13571 4.5 2.5 4.5H11.5C11.8643 4.5 12.2058 4.59739 12.5 4.76756V4C12.5 3.44772 12.0523 3 11.5 3H2.5ZM12.5 6.5C12.5 5.94772 12.0523 5.5 11.5 5.5H2.5C1.94772 5.5 1.5 5.94772 1.5 6.5V11.5C1.5 12.0523 1.94772 12.5 2.5 12.5H11.5C12.0523 12.5 12.5 12.0523 12.5 11.5V6.5ZM6.5 7.5C6.5 7.22386 6.72386 7 7 7H7.005C7.28114 7 7.505 7.22386 7.505 7.5V7.505C7.505 7.78114 7.28114 8.005 7.005 8.005H7C6.72386 8.005 6.5 7.78114 6.5 7.505V7.5ZM8 7.5C8 7.22386 8.22386 7 8.5 7H8.505C8.78114 7 9.005 7.22386 9.005 7.5V7.505C9.005 7.78114 8.78114 8.005 8.505 8.005H8.5C8.22386 8.005 8 7.78114 8 7.505V7.5ZM9.5 7.5C9.5 7.22386 9.72386 7 10 7H10.005C10.2811 7 10.505 7.22386 10.505 7.5V7.505C10.505 7.78114 10.2811 8.005 10.005 8.005H10C9.72386 8.005 9.5 7.78114 9.5 7.505V7.5ZM3.5 9C3.5 8.72386 3.72386 8.5 4 8.5H4.005C4.28114 8.5 4.505 8.72386 4.505 9V9.005C4.505 9.28114 4.28114 9.505 4.005 9.505H4C3.72386 9.505 3.5 9.28114 3.5 9.005V9ZM5 9C5 8.72386 5.22386 8.5 5.5 8.5H5.505C5.78114 8.5 6.005 8.72386 6.005 9V9.005C6.005 9.28114 5.78114 9.505 5.505 9.505H5.5C5.22386 9.505 5 9.28114 5 9.005V9ZM6.5 9C6.5 8.72386 6.72386 8.5 7 8.5H7.005C7.28114 8.5 7.505 8.72386 7.505 9V9.005C7.505 9.28114 7.28114 9.505 7.005 9.505H7C6.72386 9.505 6.5 9.28114 6.5 9.005V9ZM8 9C8 8.72386 8.22386 8.5 8.5 8.5H8.505C8.78114 8.5 9.005 8.72386 9.005 9V9.005C9.005 9.28114 8.78114 9.505 8.505 9.505H8.5C8.22386 9.505 8 9.28114 8 9.005V9ZM9.5 9C9.5 8.72386 9.72386 8.5 10 8.5H10.005C10.2811 8.5 10.505 8.72386 10.505 9V9.005C10.505 9.28114 10.2811 9.505 10.005 9.505H10C9.72386 9.505 9.5 9.28114 9.5 9.005V9ZM3.5 10.5C3.5 10.2239 3.72386 10 4 10H4.005C4.28114 10 4.505 10.2239 4.505 10.5V10.505C4.505 10.7811 4.28114 11.005 4.005 11.005H4C3.72386 11.005 3.5 10.7811 3.5 10.505V10.5ZM5 10.5C5 10.2239 5.22386 10 5.5 10H5.505C5.78114 10 6.005 10.2239 6.005 10.5V10.505C6.005 10.7811 5.78114 11.005 5.505 11.005H5.5C5.22386 11.005 5 10.7811 5 10.505V10.5ZM6.5 10.5C6.5 10.2239 6.72386 10 7 10H7.005C7.28114 10 7.505 10.2239 7.505 10.5V10.505C7.505 10.7811 7.28114 11.005 7.005 11.005H7C6.72386 11.005 6.5 10.7811 6.5 10.505V10.5ZM8 10.5C8 10.2239 8.22386 10 8.5 10H8.505C8.78114 10 9.005 10.2239 9.005 10.5V10.505C9.005 10.7811 8.78114 11.005 8.505 11.005H8.5C8.22386 11.005 8 10.7811 8 10.505V10.5Z" fill="#71757F"/>
</svg>
