<svg width="16" height="12" viewBox="0 0 16 12" fill="none" xmlns="http://www.w3.org/2000/svg">
<path fill-rule="evenodd" clip-rule="evenodd" d="M8.00035 1.5C5.12872 1.5 2.6908 3.36249 1.83115 5.94677C1.81929 5.98243 1.8193 6.02118 1.83119 6.05683C2.6919 8.63925 5.12889 10.5 7.99918 10.5C10.8708 10.5 13.3087 8.63751 14.1684 6.05323C14.1802 6.01757 14.1802 5.97882 14.1683 5.94317C13.3076 3.36076 10.8706 1.5 8.00035 1.5ZM0.882274 5.63113C1.87378 2.65047 4.68527 0.5 8.00035 0.5C11.3139 0.5 14.1243 2.64848 15.117 5.62697C15.1973 5.86768 15.1973 6.12812 15.1173 6.36887C14.1257 9.34953 11.3142 11.5 7.99918 11.5C4.68565 11.5 1.87522 9.35153 0.882492 6.37303C0.802265 6.13233 0.802188 5.87189 0.882274 5.63113ZM7.9998 4.5C7.17138 4.5 6.4998 5.17157 6.4998 6C6.4998 6.82843 7.17138 7.5 7.9998 7.5C8.82823 7.5 9.49981 6.82843 9.49981 6C9.49981 5.17157 8.82823 4.5 7.9998 4.5ZM5.4998 6C5.4998 4.61929 6.61909 3.5 7.9998 3.5C9.38052 3.5 10.4998 4.61929 10.4998 6C10.4998 7.38071 9.38052 8.5 7.9998 8.5C6.61909 8.5 5.4998 7.38071 5.4998 6Z" fill="#3388E0"/>
</svg>
