<svg width="345" height="247" viewBox="0 0 345 247" fill="none" xmlns="http://www.w3.org/2000/svg">
<path opacity="0.3" d="M204.961 59.886L204.546 59.8261L204.289 60.1163L101.724 176.038L101.289 176.53L101.998 176.622L173.104 185.863L173.514 185.916L173.767 185.631L275.526 70.6196L275.954 70.1365L275.262 70.0367L204.961 59.886ZM244.21 243.889C242.197 246.164 238.261 247.14 235.419 246.069L4.18835 158.955C1.34581 157.884 0.673191 155.172 2.68601 152.897L134.719 3.66989C136.731 1.39495 140.667 0.418879 143.51 1.48978L374.74 88.6041C377.583 89.675 378.256 92.3873 376.243 94.6623L244.21 243.889Z" stroke="url(#paint0_linear_49_2044)"/>
<defs>
<linearGradient id="paint0_linear_49_2044" x1="259.457" y1="44.6725" x2="195.688" y2="221.233" gradientUnits="userSpaceOnUse">
<stop stop-color="white"/>
<stop offset="1" stop-color="white" stop-opacity="0"/>
</linearGradient>
</defs>
</svg>
