<svg width="22" height="20" viewBox="0 0 22 20" fill="none" xmlns="http://www.w3.org/2000/svg">
<path fill-rule="evenodd" clip-rule="evenodd" d="M1.46988 0.46967C1.76278 0.176777 2.23765 0.176777 2.53054 0.46967L5.3378 3.27692C7.00137 2.30617 8.93676 1.75 11.0002 1.75C16.097 1.75 20.4004 5.13879 21.7837 9.78448C21.8253 9.92407 21.8253 10.0727 21.7838 10.2124C21.1095 12.4791 19.7412 14.4451 17.9261 15.8652L20.5305 18.4697C20.8234 18.7626 20.8234 19.2374 20.5305 19.5303C20.2377 19.8232 19.7628 19.8232 19.4699 19.5303L1.46988 1.53033C1.17699 1.23744 1.17699 0.762563 1.46988 0.46967ZM16.8564 14.7955C18.4451 13.5998 19.6561 11.9302 20.2797 9.99863C19.0139 6.08178 15.3368 3.25 11.0002 3.25C9.35193 3.25 7.80064 3.65845 6.44043 4.37955L8.93226 6.87138C9.52495 6.479 10.2362 6.25 11.0002 6.25C13.0713 6.25 14.7502 7.92893 14.7502 10C14.7502 10.764 14.5212 11.4753 14.1288 12.068L16.8564 14.7955ZM13.0311 10.9702C13.1717 10.6765 13.2502 10.3476 13.2502 10C13.2502 8.75736 12.2429 7.75 11.0002 7.75C10.6526 7.75 10.3237 7.82853 10.03 7.96914L13.0311 10.9702ZM3.46452 5.64996C3.78076 5.91748 3.82027 6.39071 3.55275 6.70695C2.74229 7.66504 2.11382 8.78091 1.71979 10.0014C2.98561 13.9182 6.66271 16.75 10.9993 16.75C11.9222 16.75 12.814 16.622 13.6584 16.3832C14.057 16.2705 14.4715 16.5022 14.5842 16.9008C14.6969 17.2994 14.4651 17.7139 14.0665 17.8266C13.0906 18.1026 12.0616 18.25 10.9993 18.25C5.9025 18.25 1.59914 14.8612 0.215762 10.2155C0.174195 10.0759 0.174173 9.92726 0.215699 9.78765C0.663915 8.2808 1.41891 6.9069 2.40754 5.73819C2.67505 5.42195 3.14828 5.38245 3.46452 5.64996Z" fill="#1D2433" fill-opacity="0.8"/>
</svg>
