<svg width="20" height="18" viewBox="0 0 20 18" fill="none" xmlns="http://www.w3.org/2000/svg">
<path fill-rule="evenodd" clip-rule="evenodd" d="M2.05742 1.05806C2.3015 0.813981 2.69723 0.813981 2.94131 1.05806L5.28068 3.39744C6.667 2.58848 8.27982 2.125 9.99935 2.125C14.2467 2.125 17.8328 4.94899 18.9856 8.8204C19.0203 8.93672 19.0203 9.06062 18.9857 9.17696C18.4238 11.0659 17.2835 12.7043 15.7709 13.8877L17.9413 16.0581C18.1854 16.3021 18.1854 16.6979 17.9413 16.9419C17.6972 17.186 17.3015 17.186 17.0574 16.9419L2.05742 1.94194C1.81335 1.69786 1.81335 1.30214 2.05742 1.05806ZM14.8795 12.9962C16.2034 11.9998 17.2126 10.6085 17.7323 8.99886C16.6774 5.73481 13.6132 3.375 9.99935 3.375C8.62579 3.375 7.33305 3.71538 6.19954 4.31629L8.27607 6.39282C8.76998 6.06583 9.36271 5.875 9.99936 5.875C11.7253 5.875 13.1244 7.27411 13.1244 9C13.1244 9.63665 12.9335 10.2294 12.6065 10.7233L14.8795 12.9962ZM11.6918 9.8085C11.8089 9.56374 11.8744 9.2897 11.8744 9C11.8744 7.96447 11.0349 7.125 9.99936 7.125C9.70966 7.125 9.43562 7.19044 9.19086 7.30761L11.6918 9.8085ZM3.71962 5.37497C3.98316 5.5979 4.01607 5.99226 3.79315 6.25579C3.11776 7.0542 2.59404 7.98409 2.26568 9.00114C3.32053 12.2652 6.38477 14.625 9.99861 14.625C10.7677 14.625 11.5108 14.5183 12.2145 14.3193C12.5467 14.2254 12.8921 14.4185 12.986 14.7507C13.0799 15.0828 12.8868 15.4282 12.5546 15.5222C11.7414 15.7521 10.8838 15.875 9.99861 15.875C5.75127 15.875 2.16513 13.051 1.01232 9.1796C0.977682 9.06328 0.977663 8.93938 1.01227 8.82304C1.38578 7.56734 2.01495 6.42242 2.8388 5.4485C3.06173 5.18496 3.45609 5.15204 3.71962 5.37497Z" fill="#3388E0"/>
</svg>
