<svg width="22" height="21" viewBox="0 0 22 21" fill="none" xmlns="http://www.w3.org/2000/svg">
<path fill-rule="evenodd" clip-rule="evenodd" d="M11.5991 2.5759C11.4527 2.42945 11.2153 2.42945 11.0688 2.5759L4.58398 9.06073V18.8751C4.58398 19.0822 4.75188 19.2501 4.95898 19.2501H8.33398V15.1251C8.33398 14.0895 9.17345 13.2501 10.209 13.2501H12.459C13.4945 13.2501 14.334 14.0895 14.334 15.1251V19.2501H17.709C17.9161 19.2501 18.084 19.0822 18.084 18.8751V9.06073L11.5991 2.5759ZM19.584 10.5607L20.5537 11.5304C20.8465 11.8233 21.3214 11.8233 21.6143 11.5304C21.9072 11.2375 21.9072 10.7626 21.6143 10.4697L12.6598 1.51524C11.9276 0.783006 10.7404 0.783006 10.0082 1.51524L1.05365 10.4697C0.760761 10.7626 0.760761 11.2375 1.05365 11.5304C1.34655 11.8233 1.82142 11.8233 2.11431 11.5304L3.08398 10.5607V18.8751C3.08398 19.9106 3.92345 20.7501 4.95898 20.7501H17.709C18.7445 20.7501 19.584 19.9106 19.584 18.8751V10.5607ZM12.834 19.2501H9.83398V15.1251C9.83398 14.918 10.0019 14.7501 10.209 14.7501H12.459C12.6661 14.7501 12.834 14.918 12.834 15.1251V19.2501Z" fill="#3388E0"/>
</svg>
