<svg width="14" height="14" viewBox="0 0 14 14" fill="none" xmlns="http://www.w3.org/2000/svg">
<path fill-rule="evenodd" clip-rule="evenodd" d="M7 1.5C3.96243 1.5 1.5 3.96243 1.5 7C1.5 10.0376 3.96243 12.5 7 12.5C10.0376 12.5 12.5 10.0376 12.5 7C12.5 3.96243 10.0376 1.5 7 1.5ZM0.5 7C0.5 3.41015 3.41015 0.5 7 0.5C10.5899 0.5 13.5 3.41015 13.5 7C13.5 10.5899 10.5899 13.5 7 13.5C3.41015 13.5 0.5 10.5899 0.5 7ZM6.5 4.5C6.5 4.22386 6.72386 4 7 4H7.005C7.28114 4 7.505 4.22386 7.505 4.5V4.505C7.505 4.78114 7.28114 5.005 7.005 5.005H7C6.72386 5.005 6.5 4.78114 6.5 4.505V4.5ZM6.30405 6.03896C7.06821 5.65688 7.92862 6.34708 7.72141 7.17592L7.24873 9.06662L7.27639 9.05279C7.52337 8.92929 7.82371 9.0294 7.94721 9.27639C8.07071 9.52337 7.9706 9.82371 7.72361 9.94721L7.69595 9.96104C6.9318 10.3431 6.07138 9.65293 6.27859 8.82408L6.75127 6.93338L6.72361 6.94721C6.47662 7.07071 6.17628 6.9706 6.05279 6.72361C5.92929 6.47662 6.0294 6.17628 6.27639 6.05279L6.30405 6.03896Z" fill="#A2A6AE"/>
</svg>
