<svg width="18" height="18" viewBox="0 0 18 18" fill="none" xmlns="http://www.w3.org/2000/svg">
<path fill-rule="evenodd" clip-rule="evenodd" d="M9 2.125C5.20304 2.125 2.125 5.20304 2.125 9C2.125 12.797 5.20304 15.875 9 15.875C12.797 15.875 15.875 12.797 15.875 9C15.875 5.20304 12.797 2.125 9 2.125ZM0.875 9C0.875 4.51269 4.51269 0.875 9 0.875C13.4873 0.875 17.125 4.51269 17.125 9C17.125 13.4873 13.4873 17.125 9 17.125C4.51269 17.125 0.875 13.4873 0.875 9ZM9 5.875C9.34518 5.875 9.625 6.15482 9.625 6.5V9.625C9.625 9.97018 9.34518 10.25 9 10.25C8.65482 10.25 8.375 9.97018 8.375 9.625V6.5C8.375 6.15482 8.65482 5.875 9 5.875ZM8.375 12.125C8.375 11.7798 8.65482 11.5 9 11.5H9.00625C9.35143 11.5 9.63125 11.7798 9.63125 12.125V12.1312C9.63125 12.4764 9.35143 12.7562 9.00625 12.7562H9C8.65482 12.7562 8.375 12.4764 8.375 12.1312V12.125Z" fill="white"/>
</svg>
