<svg width="14" height="14" viewBox="0 0 14 14" fill="none" xmlns="http://www.w3.org/2000/svg">
<path fill-rule="evenodd" clip-rule="evenodd" d="M9.5 1C7.567 1 6 2.567 6 4.5C6 4.70518 6.0176 4.90584 6.05126 5.10068C6.13617 5.59212 6.03817 6.16894 5.62556 6.58155L1.29289 10.9142C1.10536 11.1018 1 11.3561 1 11.6213V13H2.5V12C2.5 11.7239 2.72386 11.5 3 11.5H4V10.5C4 10.2239 4.22386 10 4.5 10H5.79289L7.41845 8.37444C7.83106 7.96183 8.40788 7.86383 8.89933 7.94874C9.09416 7.9824 9.29482 8 9.5 8C11.433 8 13 6.433 13 4.5C13 2.567 11.433 1 9.5 1ZM5 4.5C5 2.01472 7.01472 0 9.5 0C11.9853 0 14 2.01472 14 4.5C14 6.98528 11.9853 9 9.5 9C9.23752 9 8.9799 8.97747 8.72907 8.93414C8.46982 8.88934 8.25163 8.95548 8.12556 9.08155L6.35355 10.8536C6.25979 10.9473 6.13261 11 6 11H5V12C5 12.2761 4.77614 12.5 4.5 12.5H3.5V13.5C3.5 13.7761 3.27614 14 3 14H0.5C0.223858 14 0 13.7761 0 13.5V11.6213C0 11.0909 0.210714 10.5822 0.585786 10.2071L4.91845 5.87444C5.04452 5.74837 5.11066 5.53018 5.06586 5.27093C5.02253 5.02011 5 4.76248 5 4.5ZM9 2.5C9 2.22386 9.22386 2 9.5 2C10.8807 2 12 3.11929 12 4.5C12 4.77614 11.7761 5 11.5 5C11.2239 5 11 4.77614 11 4.5C11 3.67157 10.3284 3 9.5 3C9.22386 3 9 2.77614 9 2.5Z" fill="#71757F"/>
</svg>
