<svg width="14" height="13" viewBox="0 0 14 13" fill="none" xmlns="http://www.w3.org/2000/svg">
<path fill-rule="evenodd" clip-rule="evenodd" d="M0 1.75C0 1.05964 0.559644 0.5 1.25 0.5H12.75C13.4404 0.5 14 1.05964 14 1.75V8.25C14 8.94036 13.4404 9.5 12.75 9.5H1.25C0.559644 9.5 0 8.94036 0 8.25V1.75ZM12 8.5H2C2 7.94772 1.55228 7.5 1 7.5V2.5C1.55228 2.5 2 2.05228 2 1.5H12C12 2.05228 12.4477 2.5 13 2.5V7.5C12.4477 7.5 12 7.94772 12 8.5ZM7 3.5C6.17157 3.5 5.5 4.17157 5.5 5C5.5 5.82843 6.17157 6.5 7 6.5C7.82843 6.5 8.5 5.82843 8.5 5C8.5 4.17157 7.82843 3.5 7 3.5ZM4.5 5C4.5 3.61929 5.61929 2.5 7 2.5C8.38071 2.5 9.5 3.61929 9.5 5C9.5 6.38071 8.38071 7.5 7 7.5C5.61929 7.5 4.5 6.38071 4.5 5ZM2.5 5C2.5 4.72386 2.72386 4.5 3 4.5H3.005C3.28114 4.5 3.505 4.72386 3.505 5V5.005C3.505 5.28114 3.28114 5.505 3.005 5.505H3C2.72386 5.505 2.5 5.28114 2.5 5.005V5ZM10.5 5C10.5 4.72386 10.7239 4.5 11 4.5H11.005C11.2811 4.5 11.505 4.72386 11.505 5V5.005C11.505 5.28114 11.2811 5.505 11.005 5.505H11C10.7239 5.505 10.5 5.28114 10.5 5.005V5ZM0 10.5C0 10.2239 0.223858 10 0.5 10C4.18956 10 7.76465 10.4935 11.1625 11.4184C11.3381 11.4662 11.5 11.3336 11.5 11.1701V10.5C11.5 10.2239 11.7239 10 12 10C12.2761 10 12.5 10.2239 12.5 10.5V11.1701C12.5 12.0112 11.6936 12.5993 10.8999 12.3833C7.58682 11.4815 4.10003 11 0.5 11C0.223858 11 0 10.7761 0 10.5Z" fill="#3388E0"/>
</svg>
