<svg width="21" height="20" viewBox="0 0 21 20" fill="none" xmlns="http://www.w3.org/2000/svg">
<path fill-rule="evenodd" clip-rule="evenodd" d="M10.666 1.75C6.10967 1.75 2.41602 5.44365 2.41602 10C2.41602 14.5563 6.10967 18.25 10.666 18.25C15.2224 18.25 18.916 14.5563 18.916 10C18.916 5.44365 15.2224 1.75 10.666 1.75ZM0.916016 10C0.916016 4.61522 5.28124 0.25 10.666 0.25C16.0508 0.25 20.416 4.61522 20.416 10C20.416 15.3848 16.0508 19.75 10.666 19.75C5.28124 19.75 0.916016 15.3848 0.916016 10ZM5.79102 10C5.79102 9.37868 6.2947 8.875 6.91602 8.875C7.53734 8.875 8.04102 9.37868 8.04102 10C8.04102 10.6213 7.53734 11.125 6.91602 11.125C6.2947 11.125 5.79102 10.6213 5.79102 10ZM9.54102 10C9.54102 9.37868 10.0447 8.875 10.666 8.875C11.2873 8.875 11.791 9.37868 11.791 10C11.791 10.6213 11.2873 11.125 10.666 11.125C10.0447 11.125 9.54102 10.6213 9.54102 10ZM13.291 10C13.291 9.37868 13.7947 8.875 14.416 8.875C15.0373 8.875 15.541 9.37868 15.541 10C15.541 10.6213 15.0373 11.125 14.416 11.125C13.7947 11.125 13.291 10.6213 13.291 10Z" fill="#1D2433" fill-opacity="0.65"/>
</svg>
