<svg width="20" height="20" viewBox="0 0 20 20" fill="none" xmlns="http://www.w3.org/2000/svg">
<path fill-rule="evenodd" clip-rule="evenodd" d="M9.99952 3.125C7.58328 3.125 5.62452 5.08375 5.62452 7.5L5.62436 8.125C5.62436 8.12495 5.62436 8.12505 5.62436 8.125C5.62432 9.88284 5.06548 11.5114 4.11639 12.8409C5.26546 13.2066 6.46114 13.4681 7.69241 13.6141C8.44866 13.7038 9.21848 13.75 9.99936 13.75C10.7803 13.75 11.5503 13.7038 12.3066 13.6141C13.5378 13.4681 14.7333 13.2066 15.8823 12.8409C14.9332 11.5113 14.3744 9.8829 14.3744 8.125V7.53597L14.3745 7.5C14.3745 5.08375 12.4158 3.125 9.99952 3.125ZM4.37452 7.49984C4.37461 4.39331 6.89297 1.875 9.99952 1.875C13.1061 1.875 15.6245 4.3934 15.6245 7.5L15.6244 7.54099V8.125C15.6244 9.89427 16.2919 11.5062 17.3898 12.7249C17.5286 12.8789 17.5819 13.0917 17.5323 13.293C17.4826 13.4942 17.3364 13.6578 17.1419 13.7296C15.8552 14.2045 14.5083 14.5549 13.1159 14.766C13.1216 14.8433 13.1245 14.9213 13.1245 15C13.1245 16.7259 11.7254 18.125 9.99952 18.125C8.27363 18.125 6.87452 16.7259 6.87452 15C6.87452 14.9214 6.87744 14.8433 6.88318 14.766C5.49062 14.5549 4.14357 14.2046 2.8568 13.7296C2.66233 13.6578 2.51611 13.4942 2.46645 13.293C2.41679 13.0917 2.47015 12.8789 2.6089 12.7249C3.70684 11.5062 4.37436 9.89427 4.37436 8.125L4.37452 7.49984C4.37452 7.49989 4.37452 7.49978 4.37452 7.49984ZM8.12636 14.9161C8.12514 14.9439 8.12452 14.9718 8.12452 15C8.12452 16.0355 8.96399 16.875 9.99952 16.875C11.0351 16.875 11.8745 16.0355 11.8745 15C11.8745 14.9718 11.8739 14.9438 11.8727 14.916C11.2555 14.9716 10.6307 15 9.99936 15C9.36814 15 8.7434 14.9716 8.12636 14.9161Z" fill="white"/>
</svg>
