<svg width="18" height="18" viewBox="0 0 18 18" fill="none" xmlns="http://www.w3.org/2000/svg">
<path fill-rule="evenodd" clip-rule="evenodd" d="M0.25 2.75C0.25 1.36929 1.36929 0.25 2.75 0.25H3.89302C4.61 0.25 5.23498 0.737964 5.40887 1.43354L6.33037 5.11952C6.48284 5.72942 6.25495 6.37129 5.75202 6.74849L4.674 7.557C4.56206 7.64096 4.53772 7.7639 4.56917 7.84974C5.51542 10.4329 7.5671 12.4846 10.1503 13.4308C10.2361 13.4623 10.359 13.4379 10.443 13.326L11.2515 12.248C11.6287 11.7451 12.2706 11.5172 12.8805 11.6696L16.5665 12.5911C17.262 12.765 17.75 13.39 17.75 14.107V15.25C17.75 16.6307 16.6307 17.75 15.25 17.75H13.375C6.12626 17.75 0.25 11.8737 0.25 4.625V2.75ZM2.75 1.5C2.05964 1.5 1.5 2.05964 1.5 2.75V4.625C1.5 11.1834 6.81662 16.5 13.375 16.5H15.25C15.9404 16.5 16.5 15.9404 16.5 15.25V14.107C16.5 13.9636 16.4024 13.8386 16.2633 13.8038L12.5773 12.8823C12.4553 12.8518 12.327 12.8974 12.2515 12.998L11.443 14.076C11.0577 14.5898 10.3689 14.8422 9.72031 14.6046C6.79189 13.5318 4.46817 11.2081 3.39544 8.27969C3.15784 7.63109 3.41021 6.94235 3.924 6.557L5.00202 5.74849C5.1026 5.67305 5.14818 5.54467 5.11769 5.42269L4.19619 1.73671C4.16141 1.59759 4.03642 1.5 3.89302 1.5H2.75Z" fill="white"/>
</svg>
