<svg width="20" height="18" viewBox="0 0 20 18" fill="none" xmlns="http://www.w3.org/2000/svg">
<path fill-rule="evenodd" clip-rule="evenodd" d="M0.166992 3C0.166992 1.34315 1.51014 0 3.16699 0H16.667C18.3238 0 19.667 1.34315 19.667 3V15C19.667 16.6569 18.3238 18 16.667 18H3.16699C1.51014 18 0.166992 16.6569 0.166992 15V3ZM1.66699 3.40135V3C1.66699 2.17157 2.33857 1.5 3.16699 1.5H16.667C17.4954 1.5 18.167 2.17157 18.167 3V3.40135C17.7257 3.14609 17.2134 3 16.667 3H3.16699C2.62056 3 2.10825 3.14609 1.66699 3.40135ZM18.167 6C18.167 5.17157 17.4954 4.5 16.667 4.5H3.16699C2.33857 4.5 1.66699 5.17157 1.66699 6V6.40135C2.10825 6.14609 2.62056 6 3.16699 6H6.91699C7.33121 6 7.66699 6.33579 7.66699 6.75C7.66699 7.99264 8.67435 9 9.91699 9C11.1596 9 12.167 7.99264 12.167 6.75C12.167 6.33579 12.5028 6 12.917 6H16.667C17.2134 6 17.7257 6.14609 18.167 6.40135V6ZM18.167 9C18.167 8.17157 17.4954 7.5 16.667 7.5H13.592C13.2445 9.21168 11.7312 10.5 9.91699 10.5C8.10277 10.5 6.58946 9.21168 6.24201 7.5H3.16699C2.33857 7.5 1.66699 8.17157 1.66699 9V15C1.66699 15.8284 2.33857 16.5 3.16699 16.5H16.667C17.4954 16.5 18.167 15.8284 18.167 15V9Z" fill="#1D2433" fill-opacity="0.65"/>
</svg>
