<svg width="20" height="20" viewBox="0 0 20 20" fill="none" xmlns="http://www.w3.org/2000/svg">
<path fill-rule="evenodd" clip-rule="evenodd" d="M10 1.75C5.44365 1.75 1.75 5.44365 1.75 10C1.75 12.1739 2.59004 14.1508 3.96491 15.625C5.4701 14.0109 7.6171 13 10 13C12.3829 13 14.5299 14.0109 16.0351 15.625C17.41 14.1508 18.25 12.1739 18.25 10C18.25 5.44365 14.5563 1.75 10 1.75ZM14.9169 16.6254C13.685 15.316 11.9379 14.5 10 14.5C8.06208 14.5 6.31496 15.316 5.08307 16.6254C6.45636 17.6464 8.157 18.25 10 18.25C11.843 18.25 13.5436 17.6464 14.9169 16.6254ZM0.25 10C0.25 4.61522 4.61522 0.25 10 0.25C15.3848 0.25 19.75 4.61522 19.75 10C19.75 12.8973 18.4853 15.5003 16.4802 17.285C14.7581 18.8178 12.487 19.75 10 19.75C7.51298 19.75 5.24187 18.8178 3.51981 17.285C1.51473 15.5003 0.25 12.8973 0.25 10ZM10 5.5C8.75736 5.5 7.75 6.50736 7.75 7.75C7.75 8.99264 8.75736 10 10 10C11.2426 10 12.25 8.99264 12.25 7.75C12.25 6.50736 11.2426 5.5 10 5.5ZM6.25 7.75C6.25 5.67893 7.92893 4 10 4C12.0711 4 13.75 5.67893 13.75 7.75C13.75 9.82107 12.0711 11.5 10 11.5C7.92893 11.5 6.25 9.82107 6.25 7.75Z" fill="white"/>
</svg>
