<svg width="22" height="22" viewBox="0 0 22 22" fill="none" xmlns="http://www.w3.org/2000/svg">
<path fill-rule="evenodd" clip-rule="evenodd" d="M10.7274 0.589647C10.9494 0.470118 11.2166 0.470118 11.4386 0.589647L21.1886 5.83965C21.4315 5.97046 21.583 6.22409 21.583 6.5C21.583 6.77591 21.4315 7.02954 21.1886 7.16035L18.2364 8.75L21.1886 10.3396C21.4315 10.4705 21.583 10.7241 21.583 11C21.583 11.2759 21.4315 11.5295 21.1886 11.6604L18.2364 13.25L21.1886 14.8396C21.4315 14.9705 21.583 15.2241 21.583 15.5C21.583 15.7759 21.4315 16.0295 21.1886 16.1604L11.4386 21.4104C11.2166 21.5299 10.9494 21.5299 10.7274 21.4104L0.977433 16.1604C0.734501 16.0295 0.583008 15.7759 0.583008 15.5C0.583008 15.2241 0.734501 14.9705 0.977433 14.8396L3.92963 13.25L0.977433 11.6604C0.734501 11.5295 0.583008 11.2759 0.583008 11C0.583008 10.7241 0.734501 10.4705 0.977433 10.3396L3.92963 8.75L0.977433 7.16035C0.734501 7.02954 0.583008 6.77591 0.583008 6.5C0.583008 6.22409 0.734501 5.97046 0.977433 5.83965L10.7274 0.589647ZM5.51158 9.60182L2.91495 11L11.083 15.3982L19.2511 11L16.6544 9.60182L11.4386 12.4104C11.2166 12.5299 10.9494 12.5299 10.7274 12.4104L5.51158 9.60182ZM5.51158 14.1018L2.91495 15.5L11.083 19.8982L19.2511 15.5L16.6544 14.1018L11.4386 16.9104C11.2166 17.0299 10.9494 17.0299 10.7274 16.9104L5.51158 14.1018ZM2.91495 6.5L11.083 10.8982L19.2511 6.5L11.083 2.10182L2.91495 6.5Z" fill="#1D2433" fill-opacity="0.65"/>
</svg>
