<svg width="16" height="18" viewBox="0 0 16 18" fill="none" xmlns="http://www.w3.org/2000/svg">
<path fill-rule="evenodd" clip-rule="evenodd" d="M5.37827 2.18063C5.50384 1.42721 6.1557 0.875 6.91951 0.875H9.08114C9.84496 0.875 10.4968 1.42721 10.6224 2.18063L10.8003 3.24817C10.8161 3.34274 10.8861 3.4526 11.0232 3.52848C11.0919 3.56651 11.1598 3.60579 11.2269 3.64629C11.361 3.72727 11.4913 3.73312 11.5812 3.69944L12.5952 3.31954C13.3105 3.05157 14.1146 3.34 14.4965 4.00148L15.5774 5.87351C15.9593 6.53499 15.807 7.37562 15.2173 7.86108L14.3803 8.55009C14.3062 8.61108 14.2464 8.72644 14.2492 8.8822C14.25 8.92138 14.2503 8.96065 14.2503 9C14.2503 9.03934 14.25 9.0786 14.2492 9.11778C14.2464 9.27355 14.3062 9.38891 14.3803 9.4499L15.2173 10.1389C15.807 10.6244 15.9593 11.465 15.5774 12.1265L14.4965 13.9985C14.1146 14.66 13.3105 14.9484 12.5952 14.6804L11.5812 14.3006C11.4913 14.2669 11.361 14.2727 11.2269 14.3537C11.1598 14.3942 11.0919 14.4335 11.0232 14.4715C10.8861 14.5474 10.8161 14.6573 10.8003 14.7518L10.6224 15.8194C10.4968 16.5728 9.84495 17.125 9.08114 17.125H6.91951C6.1557 17.125 5.50384 16.5728 5.37827 15.8194L5.20034 14.7518C5.18458 14.6573 5.11452 14.5474 4.97742 14.4715C4.90873 14.4335 4.84083 14.3942 4.77376 14.3537C4.63965 14.2727 4.5094 14.2669 4.41949 14.3006L3.40543 14.6805C2.69017 14.9484 1.88601 14.66 1.50411 13.9985L0.423289 12.1265C0.0413836 11.465 0.19368 10.6244 0.783375 10.1389L1.18061 10.6214L0.783375 10.1389L1.62033 9.44991C1.69442 9.38892 1.7543 9.27356 1.75142 9.1178C1.75069 9.07861 1.75033 9.03934 1.75033 9C1.75033 8.96066 1.75069 8.9214 1.75142 8.88221C1.7543 8.72645 1.69442 8.61109 1.62033 8.5501L0.783374 7.86109C0.19368 7.37563 0.0413835 6.535 0.423289 5.87352L1.50411 4.00149C1.88601 3.34001 2.69017 3.05159 3.40543 3.31955L4.41948 3.69945C4.50939 3.73313 4.63964 3.72728 4.77375 3.64629C4.84082 3.60579 4.90872 3.56651 4.97742 3.52848C5.11451 3.4526 5.18458 3.34274 5.20034 3.24817L5.37827 2.18063ZM6.91951 2.125C6.76675 2.125 6.63637 2.23544 6.61126 2.38613L6.43334 3.45367C6.3452 3.9825 5.99864 4.39192 5.58279 4.62211C5.52786 4.65252 5.47355 4.68394 5.41989 4.71634C5.01228 4.96247 4.48365 5.05833 3.98095 4.87L2.9669 4.4901C2.82385 4.43651 2.66302 4.49419 2.58664 4.62649L1.50582 6.49852C1.42944 6.63082 1.4599 6.79894 1.57784 6.89604L2.4148 7.58505C2.82823 7.9254 3.01001 8.42977 3.0012 8.90536C3.00062 8.93683 3.00033 8.96838 3.00033 9C3.00033 9.03163 3.00062 9.06318 3.0012 9.09465C3.01001 9.57024 2.82823 10.0746 2.4148 10.415L1.57784 11.104L1.30089 10.7676L1.57784 11.104C1.4599 11.2011 1.42944 11.3692 1.50582 11.5015L2.58664 13.3735C2.66302 13.5058 2.82385 13.5635 2.9669 13.5099L3.98096 13.13C4.48366 12.9417 5.0123 13.0375 5.4199 13.2837C5.47355 13.3161 5.52786 13.3475 5.58279 13.3779C5.99864 13.6081 6.3452 14.0175 6.43334 14.5463L6.61126 15.6139C6.63637 15.7646 6.76675 15.875 6.91951 15.875H9.08114C9.23391 15.875 9.36428 15.7646 9.38939 15.6139L9.56732 14.5463C9.65545 14.0175 10.002 13.6081 10.4179 13.3779C10.4728 13.3475 10.5271 13.3161 10.5808 13.2837C10.9884 13.0375 11.517 12.9417 12.0197 13.13L13.0337 13.5099C13.1768 13.5635 13.3376 13.5058 13.414 13.3735L14.4948 11.5015C14.5712 11.3692 14.5408 11.2011 14.4228 11.104L13.5859 10.415C13.1724 10.0746 12.9906 9.57022 12.9995 9.09464C13 9.06318 13.0003 9.03163 13.0003 9C13.0003 8.96838 13 8.93683 12.9995 8.90535C12.9906 8.42976 13.1724 7.92538 13.5859 7.58504L14.4228 6.89602C14.5408 6.79893 14.5712 6.63081 14.4948 6.49851L13.414 4.62648C13.3376 4.49418 13.1768 4.4365 13.0337 4.49009L12.0197 4.86999C11.517 5.05832 10.9884 4.96246 10.5807 4.71633C10.5271 4.68394 10.4728 4.65252 10.4179 4.62211C10.002 4.39192 9.65545 3.9825 9.56732 3.45367L9.38939 2.38613C9.36428 2.23544 9.23391 2.125 9.08114 2.125H6.91951ZM8.00013 7.12493C6.9646 7.12493 6.12513 7.9644 6.12513 8.99993C6.12513 10.0355 6.9646 10.8749 8.00013 10.8749C9.03567 10.8749 9.87513 10.0355 9.87513 8.99993C9.87513 7.9644 9.03567 7.12493 8.00013 7.12493ZM4.87513 8.99993C4.87513 7.27404 6.27424 5.87493 8.00013 5.87493C9.72602 5.87493 11.1251 7.27404 11.1251 8.99993C11.1251 10.7258 9.72602 12.1249 8.00013 12.1249C6.27424 12.1249 4.87513 10.7258 4.87513 8.99993Z" fill="#1D2433" fill-opacity="0.8"/>
</svg>
