<svg width="18" height="18" viewBox="0 0 18 18" fill="none" xmlns="http://www.w3.org/2000/svg">
<path fill-rule="evenodd" clip-rule="evenodd" d="M9 2.125C5.20304 2.125 2.125 5.20304 2.125 9C2.125 12.797 5.20304 15.875 9 15.875C12.797 15.875 15.875 12.797 15.875 9C15.875 5.20304 12.797 2.125 9 2.125ZM0.875 9C0.875 4.51269 4.51269 0.875 9 0.875C13.4873 0.875 17.125 4.51269 17.125 9C17.125 13.4873 13.4873 17.125 9 17.125C4.51269 17.125 0.875 13.4873 0.875 9ZM11.8633 6.61642C12.1442 6.81705 12.2092 7.20739 12.0086 7.48827L8.88358 11.8633C8.7768 12.0128 8.60964 12.1077 8.42655 12.1229C8.24346 12.138 8.06297 12.0719 7.93306 11.9419L6.05806 10.0669C5.81398 9.82286 5.81398 9.42714 6.05806 9.18306C6.30214 8.93898 6.69786 8.93898 6.94194 9.18306L8.29525 10.5364L10.9914 6.76173C11.192 6.48084 11.5824 6.41579 11.8633 6.61642Z" fill="#288608"/>
</svg>
