<svg width="880" height="364" viewBox="0 0 880 364" fill="none" xmlns="http://www.w3.org/2000/svg">
<rect width="880" height="364" fill="white"/>
<path d="M67.2626 360.119C66.6774 360.119 66.1547 360.018 65.6944 359.817C65.237 359.615 64.8748 359.335 64.6078 358.977C64.3436 358.616 64.2015 358.199 64.1816 357.724H65.5197C65.5368 357.983 65.6234 358.207 65.7797 358.398C65.9387 358.585 66.1461 358.73 66.4018 358.832C66.6575 358.935 66.9416 358.986 67.2541 358.986C67.5978 358.986 67.9018 358.926 68.166 358.807C68.4331 358.687 68.6419 358.521 68.7924 358.308C68.943 358.092 69.0183 357.844 69.0183 357.562C69.0183 357.27 68.943 357.013 68.7924 356.791C68.6447 356.567 68.4274 356.391 68.1404 356.263C67.8564 356.135 67.5126 356.071 67.1092 356.071H66.372V354.997H67.1092C67.4331 354.997 67.7172 354.939 67.9615 354.822C68.2086 354.706 68.4018 354.544 68.541 354.337C68.6802 354.126 68.7498 353.881 68.7498 353.599C68.7498 353.33 68.6887 353.095 68.5666 352.896C68.4473 352.695 68.2768 352.537 68.0552 352.423C67.8365 352.31 67.5779 352.253 67.2797 352.253C66.9956 352.253 66.7299 352.305 66.4828 352.411C66.2385 352.513 66.0396 352.661 65.8862 352.854C65.7328 353.044 65.6504 353.273 65.639 353.54H64.3649C64.3791 353.068 64.5183 352.653 64.7825 352.295C65.0495 351.937 65.4018 351.658 65.8393 351.456C66.2768 351.254 66.7626 351.153 67.2967 351.153C67.8564 351.153 68.3393 351.263 68.7456 351.482C69.1547 351.697 69.47 351.986 69.6916 352.347C69.916 352.707 70.0268 353.102 70.024 353.531C70.0268 354.02 69.8904 354.435 69.6149 354.776C69.3422 355.116 68.9785 355.345 68.524 355.462V355.53C69.1035 355.618 69.5524 355.848 69.8706 356.22C70.1916 356.592 70.3507 357.054 70.3478 357.605C70.3507 358.085 70.2172 358.516 69.9473 358.896C69.6802 359.277 69.3152 359.577 68.8521 359.795C68.389 360.011 67.8592 360.119 67.2626 360.119ZM74.997 360.145C74.3237 360.142 73.7484 359.964 73.2711 359.612C72.7939 359.26 72.4288 358.747 72.176 358.074C71.9231 357.401 71.7967 356.589 71.7967 355.641C71.7967 354.695 71.9231 353.886 72.176 353.216C72.4316 352.545 72.7981 352.034 73.2754 351.682C73.7555 351.33 74.3294 351.153 74.997 351.153C75.6646 351.153 76.237 351.331 76.7143 351.686C77.1916 352.038 77.5566 352.55 77.8095 353.22C78.0652 353.888 78.193 354.695 78.193 355.641C78.193 356.592 78.0666 357.405 77.8137 358.078C77.5609 358.749 77.1958 359.261 76.7186 359.616C76.2413 359.969 75.6674 360.145 74.997 360.145ZM74.997 359.007C75.5879 359.007 76.0495 358.719 76.3819 358.142C76.7172 357.565 76.8848 356.732 76.8848 355.641C76.8848 354.916 76.8081 354.304 76.6547 353.804C76.5041 353.301 76.2868 352.92 76.0027 352.662C75.7214 352.401 75.3862 352.27 74.997 352.27C74.4089 352.27 73.9473 352.56 73.612 353.139C73.2768 353.719 73.1078 354.553 73.1049 355.641C73.1049 356.368 73.1802 356.983 73.3308 357.486C73.4842 357.986 73.7015 358.365 73.9828 358.624C74.264 358.879 74.6021 359.007 74.997 359.007ZM83.0456 350.864L80.2331 361.312H79.0953L81.9078 350.864H83.0456ZM87.4221 351.273V360H86.101V352.594H86.0499L83.9618 353.957V352.696L86.1394 351.273H87.4221ZM93.0939 351.273V360H91.7729V352.594H91.7218L89.6337 353.957V352.696L91.8113 351.273H93.0939Z" fill="#A2A6AE"/>
<path d="M191.789 360.119C191.204 360.119 190.681 360.018 190.221 359.817C189.763 359.615 189.401 359.335 189.134 358.977C188.87 358.616 188.728 358.199 188.708 357.724H190.046C190.063 357.983 190.15 358.207 190.306 358.398C190.465 358.585 190.672 358.73 190.928 358.832C191.184 358.935 191.468 358.986 191.78 358.986C192.124 358.986 192.428 358.926 192.692 358.807C192.959 358.687 193.168 358.521 193.319 358.308C193.469 358.092 193.545 357.844 193.545 357.562C193.545 357.27 193.469 357.013 193.319 356.791C193.171 356.567 192.954 356.391 192.667 356.263C192.383 356.135 192.039 356.071 191.636 356.071H190.898V354.997H191.636C191.959 354.997 192.244 354.939 192.488 354.822C192.735 354.706 192.928 354.544 193.067 354.337C193.207 354.126 193.276 353.881 193.276 353.599C193.276 353.33 193.215 353.095 193.093 352.896C192.974 352.695 192.803 352.537 192.582 352.423C192.363 352.31 192.104 352.253 191.806 352.253C191.522 352.253 191.256 352.305 191.009 352.411C190.765 352.513 190.566 352.661 190.413 352.854C190.259 353.044 190.177 353.273 190.165 353.54H188.891C188.905 353.068 189.045 352.653 189.309 352.295C189.576 351.937 189.928 351.658 190.366 351.456C190.803 351.254 191.289 351.153 191.823 351.153C192.383 351.153 192.866 351.263 193.272 351.482C193.681 351.697 193.996 351.986 194.218 352.347C194.442 352.707 194.553 353.102 194.55 353.531C194.553 354.02 194.417 354.435 194.141 354.776C193.869 355.116 193.505 355.345 193.05 355.462V355.53C193.63 355.618 194.079 355.848 194.397 356.22C194.718 356.592 194.877 357.054 194.874 357.605C194.877 358.085 194.744 358.516 194.474 358.896C194.207 359.277 193.842 359.577 193.378 359.795C192.915 360.011 192.386 360.119 191.789 360.119ZM199.796 351.273V360H198.475V352.594H198.424L196.336 353.957V352.696L198.513 351.273H199.796ZM205.498 350.864L202.685 361.312H201.547L204.36 350.864H205.498ZM209.874 351.273V360H208.553V352.594H208.502L206.414 353.957V352.696L208.592 351.273H209.874ZM212.235 360V359.045L215.188 355.986C215.503 355.653 215.763 355.362 215.968 355.112C216.175 354.859 216.33 354.619 216.432 354.392C216.535 354.165 216.586 353.923 216.586 353.668C216.586 353.378 216.518 353.128 216.381 352.918C216.245 352.705 216.059 352.541 215.823 352.428C215.587 352.311 215.322 352.253 215.026 352.253C214.714 352.253 214.441 352.317 214.208 352.445C213.975 352.572 213.796 352.753 213.671 352.986C213.546 353.219 213.484 353.491 213.484 353.804H212.226C212.226 353.273 212.349 352.808 212.593 352.411C212.837 352.013 213.172 351.705 213.599 351.486C214.025 351.264 214.509 351.153 215.052 351.153C215.6 351.153 216.083 351.263 216.501 351.482C216.921 351.697 217.249 351.993 217.485 352.368C217.721 352.74 217.839 353.161 217.839 353.629C217.839 353.953 217.778 354.27 217.655 354.58C217.536 354.889 217.327 355.234 217.029 355.615C216.731 355.993 216.316 356.452 215.785 356.991L214.05 358.807V358.871H217.979V360H212.235Z" fill="#A2A6AE"/>
<path d="M315.93 360.119C315.344 360.119 314.822 360.018 314.361 359.817C313.904 359.615 313.542 359.335 313.275 358.977C313.011 358.616 312.869 358.199 312.849 357.724H314.187C314.204 357.983 314.29 358.207 314.447 358.398C314.606 358.585 314.813 358.73 315.069 358.832C315.324 358.935 315.609 358.986 315.921 358.986C316.265 358.986 316.569 358.926 316.833 358.807C317.1 358.687 317.309 358.521 317.459 358.308C317.61 358.092 317.685 357.844 317.685 357.562C317.685 357.27 317.61 357.013 317.459 356.791C317.312 356.567 317.094 356.391 316.807 356.263C316.523 356.135 316.18 356.071 315.776 356.071H315.039V354.997H315.776C316.1 354.997 316.384 354.939 316.628 354.822C316.876 354.706 317.069 354.544 317.208 354.337C317.347 354.126 317.417 353.881 317.417 353.599C317.417 353.33 317.356 353.095 317.234 352.896C317.114 352.695 316.944 352.537 316.722 352.423C316.503 352.31 316.245 352.253 315.947 352.253C315.663 352.253 315.397 352.305 315.15 352.411C314.905 352.513 314.707 352.661 314.553 352.854C314.4 353.044 314.317 353.273 314.306 353.54H313.032C313.046 353.068 313.185 352.653 313.449 352.295C313.717 351.937 314.069 351.658 314.506 351.456C314.944 351.254 315.43 351.153 315.964 351.153C316.523 351.153 317.006 351.263 317.413 351.482C317.822 351.697 318.137 351.986 318.359 352.347C318.583 352.707 318.694 353.102 318.691 353.531C318.694 354.02 318.557 354.435 318.282 354.776C318.009 355.116 317.646 355.345 317.191 355.462V355.53C317.771 355.618 318.219 355.848 318.538 356.22C318.859 356.592 319.018 357.054 319.015 357.605C319.018 358.085 318.884 358.516 318.614 358.896C318.347 359.277 317.982 359.577 317.519 359.795C317.056 360.011 316.526 360.119 315.93 360.119ZM323.937 351.273V360H322.616V352.594H322.565L320.476 353.957V352.696L322.654 351.273H323.937ZM329.638 350.864L326.826 361.312H325.688L328.501 350.864H329.638ZM333.742 360.145C333.069 360.142 332.494 359.964 332.016 359.612C331.539 359.26 331.174 358.747 330.921 358.074C330.668 357.401 330.542 356.589 330.542 355.641C330.542 354.695 330.668 353.886 330.921 353.216C331.177 352.545 331.543 352.034 332.021 351.682C332.501 351.33 333.074 351.153 333.742 351.153C334.41 351.153 334.982 351.331 335.459 351.686C335.937 352.038 336.302 352.55 336.555 353.22C336.81 353.888 336.938 354.695 336.938 355.641C336.938 356.592 336.812 357.405 336.559 358.078C336.306 358.749 335.941 359.261 335.464 359.616C334.986 359.969 334.413 360.145 333.742 360.145ZM333.742 359.007C334.333 359.007 334.795 358.719 335.127 358.142C335.462 357.565 335.63 356.732 335.63 355.641C335.63 354.916 335.553 354.304 335.4 353.804C335.249 353.301 335.032 352.92 334.748 352.662C334.467 352.401 334.131 352.27 333.742 352.27C333.154 352.27 332.692 352.56 332.357 353.139C332.022 353.719 331.853 354.553 331.85 355.641C331.85 356.368 331.925 356.983 332.076 357.486C332.229 357.986 332.447 358.365 332.728 358.624C333.009 358.879 333.347 359.007 333.742 359.007ZM341.761 351.273V360H340.44V352.594H340.389L338.301 353.957V352.696L340.478 351.273H341.761Z" fill="#A2A6AE"/>
<path d="M437.613 360V359.045L440.566 355.986C440.881 355.653 441.141 355.362 441.346 355.112C441.553 354.859 441.708 354.619 441.81 354.392C441.913 354.165 441.964 353.923 441.964 353.668C441.964 353.378 441.896 353.128 441.759 352.918C441.623 352.705 441.437 352.541 441.201 352.428C440.965 352.311 440.7 352.253 440.404 352.253C440.092 352.253 439.819 352.317 439.586 352.445C439.353 352.572 439.174 352.753 439.049 352.986C438.924 353.219 438.862 353.491 438.862 353.804H437.604C437.604 353.273 437.727 352.808 437.971 352.411C438.215 352.013 438.55 351.705 438.977 351.486C439.403 351.264 439.887 351.153 440.43 351.153C440.978 351.153 441.461 351.263 441.879 351.482C442.299 351.697 442.627 351.993 442.863 352.368C443.099 352.74 443.217 353.161 443.217 353.629C443.217 353.953 443.156 354.27 443.033 354.58C442.914 354.889 442.705 355.234 442.407 355.615C442.109 355.993 441.694 356.452 441.163 356.991L439.428 358.807V358.871H443.357V360H437.613ZM447.921 360.119C447.31 360.119 446.771 360.014 446.302 359.804C445.836 359.594 445.471 359.304 445.207 358.935C444.942 358.565 444.812 358.145 444.815 357.673C444.812 357.304 444.887 356.964 445.04 356.655C445.197 356.342 445.408 356.082 445.675 355.875C445.942 355.665 446.241 355.531 446.57 355.474V355.423C446.136 355.318 445.788 355.085 445.526 354.724C445.265 354.364 445.136 353.949 445.138 353.48C445.136 353.034 445.254 352.636 445.492 352.287C445.734 351.935 446.065 351.658 446.485 351.456C446.906 351.254 447.384 351.153 447.921 351.153C448.452 351.153 448.927 351.256 449.344 351.46C449.765 351.662 450.096 351.939 450.337 352.291C450.579 352.641 450.701 353.037 450.704 353.48C450.701 353.949 450.567 354.364 450.303 354.724C450.039 355.085 449.695 355.318 449.272 355.423V355.474C449.599 355.531 449.893 355.665 450.154 355.875C450.418 356.082 450.629 356.342 450.785 356.655C450.944 356.964 451.025 357.304 451.028 357.673C451.025 358.145 450.891 358.565 450.627 358.935C450.363 359.304 449.996 359.594 449.528 359.804C449.062 360.014 448.526 360.119 447.921 360.119ZM447.921 359.041C448.282 359.041 448.594 358.982 448.859 358.862C449.123 358.74 449.327 358.571 449.472 358.355C449.617 358.136 449.691 357.881 449.694 357.588C449.691 357.284 449.612 357.016 449.455 356.783C449.302 356.55 449.093 356.366 448.829 356.233C448.565 356.099 448.262 356.033 447.921 356.033C447.577 356.033 447.272 356.099 447.005 356.233C446.738 356.366 446.528 356.55 446.374 356.783C446.221 357.016 446.146 357.284 446.148 357.588C446.146 357.881 446.215 358.136 446.357 358.355C446.502 358.571 446.708 358.74 446.975 358.862C447.242 358.982 447.558 359.041 447.921 359.041ZM447.921 354.98C448.211 354.98 448.468 354.922 448.692 354.805C448.917 354.689 449.093 354.527 449.221 354.32C449.352 354.112 449.418 353.869 449.421 353.591C449.418 353.318 449.353 353.08 449.225 352.875C449.1 352.67 448.925 352.513 448.701 352.402C448.477 352.288 448.217 352.232 447.921 352.232C447.62 352.232 447.356 352.288 447.129 352.402C446.904 352.513 446.729 352.67 446.604 352.875C446.479 353.08 446.418 353.318 446.421 353.591C446.418 353.869 446.481 354.112 446.609 354.32C446.737 354.527 446.913 354.689 447.137 354.805C447.364 354.922 447.626 354.98 447.921 354.98ZM455.895 350.864L453.083 361.312H451.945L454.757 350.864H455.895ZM459.999 360.145C459.326 360.142 458.75 359.964 458.273 359.612C457.796 359.26 457.431 358.747 457.178 358.074C456.925 357.401 456.799 356.589 456.799 355.641C456.799 354.695 456.925 353.886 457.178 353.216C457.434 352.545 457.8 352.034 458.277 351.682C458.757 351.33 459.331 351.153 459.999 351.153C460.667 351.153 461.239 351.331 461.716 351.686C462.194 352.038 462.559 352.55 462.811 353.22C463.067 353.888 463.195 354.695 463.195 355.641C463.195 356.592 463.069 357.405 462.816 358.078C462.563 358.749 462.198 359.261 461.721 359.616C461.243 359.969 460.669 360.145 459.999 360.145ZM459.999 359.007C460.59 359.007 461.051 358.719 461.384 358.142C461.719 357.565 461.887 356.732 461.887 355.641C461.887 354.916 461.81 354.304 461.657 353.804C461.506 353.301 461.289 352.92 461.005 352.662C460.723 352.401 460.388 352.27 459.999 352.27C459.411 352.27 458.949 352.56 458.614 353.139C458.279 353.719 458.11 354.553 458.107 355.641C458.107 356.368 458.182 356.983 458.333 357.486C458.486 357.986 458.703 358.365 458.985 358.624C459.266 358.879 459.604 359.007 459.999 359.007ZM464.707 360V359.045L467.66 355.986C467.975 355.653 468.235 355.362 468.44 355.112C468.647 354.859 468.802 354.619 468.904 354.392C469.006 354.165 469.058 353.923 469.058 353.668C469.058 353.378 468.989 353.128 468.853 352.918C468.717 352.705 468.531 352.541 468.295 352.428C468.059 352.311 467.793 352.253 467.498 352.253C467.185 352.253 466.913 352.317 466.68 352.445C466.447 352.572 466.268 352.753 466.143 352.986C466.018 353.219 465.955 353.491 465.955 353.804H464.698C464.698 353.273 464.82 352.808 465.065 352.411C465.309 352.013 465.644 351.705 466.07 351.486C466.496 351.264 466.981 351.153 467.523 351.153C468.072 351.153 468.555 351.263 468.972 351.482C469.393 351.697 469.721 351.993 469.957 352.368C470.192 352.74 470.31 353.161 470.31 353.629C470.31 353.953 470.249 354.27 470.127 354.58C470.008 354.889 469.799 355.234 469.501 355.615C469.202 355.993 468.788 356.452 468.256 356.991L466.522 358.807V358.871H470.451V360H464.707Z" fill="#A2A6AE"/>
<path d="M568.564 360.119C567.979 360.119 567.456 360.018 566.996 359.817C566.539 359.615 566.177 359.335 565.91 358.977C565.645 358.616 565.503 358.199 565.483 357.724H566.821C566.839 357.983 566.925 358.207 567.081 358.398C567.241 358.585 567.448 358.73 567.704 358.832C567.959 358.935 568.243 358.986 568.556 358.986C568.9 358.986 569.204 358.926 569.468 358.807C569.735 358.687 569.944 358.521 570.094 358.308C570.245 358.092 570.32 357.844 570.32 357.562C570.32 357.27 570.245 357.013 570.094 356.791C569.946 356.567 569.729 356.391 569.442 356.263C569.158 356.135 568.814 356.071 568.411 356.071H567.674V354.997H568.411C568.735 354.997 569.019 354.939 569.263 354.822C569.51 354.706 569.704 354.544 569.843 354.337C569.982 354.126 570.052 353.881 570.052 353.599C570.052 353.33 569.991 353.095 569.868 352.896C569.749 352.695 569.579 352.537 569.357 352.423C569.138 352.31 568.88 352.253 568.581 352.253C568.297 352.253 568.032 352.305 567.785 352.411C567.54 352.513 567.341 352.661 567.188 352.854C567.035 353.044 566.952 353.273 566.941 353.54H565.667C565.681 353.068 565.82 352.653 566.084 352.295C566.351 351.937 566.704 351.658 567.141 351.456C567.579 351.254 568.064 351.153 568.598 351.153C569.158 351.153 569.641 351.263 570.047 351.482C570.456 351.697 570.772 351.986 570.993 352.347C571.218 352.707 571.329 353.102 571.326 353.531C571.329 354.02 571.192 354.435 570.917 354.776C570.644 355.116 570.28 355.345 569.826 355.462V355.53C570.405 355.618 570.854 355.848 571.172 356.22C571.493 356.592 571.652 357.054 571.65 357.605C571.652 358.085 571.519 358.516 571.249 358.896C570.982 359.277 570.617 359.577 570.154 359.795C569.691 360.011 569.161 360.119 568.564 360.119ZM576.571 351.273V360H575.25V352.594H575.199L573.111 353.957V352.696L575.289 351.273H576.571ZM582.273 350.864L579.461 361.312H578.323L581.135 350.864H582.273ZM586.377 360.145C585.704 360.142 585.128 359.964 584.651 359.612C584.174 359.26 583.809 358.747 583.556 358.074C583.303 357.401 583.177 356.589 583.177 355.641C583.177 354.695 583.303 353.886 583.556 353.216C583.812 352.545 584.178 352.034 584.655 351.682C585.135 351.33 585.709 351.153 586.377 351.153C587.044 351.153 587.617 351.331 588.094 351.686C588.571 352.038 588.937 352.55 589.189 353.22C589.445 353.888 589.573 354.695 589.573 355.641C589.573 356.592 589.446 357.405 589.194 358.078C588.941 358.749 588.576 359.261 588.098 359.616C587.621 359.969 587.047 360.145 586.377 360.145ZM586.377 359.007C586.968 359.007 587.429 358.719 587.762 358.142C588.097 357.565 588.265 356.732 588.265 355.641C588.265 354.916 588.188 354.304 588.035 353.804C587.884 353.301 587.667 352.92 587.383 352.662C587.101 352.401 586.766 352.27 586.377 352.27C585.789 352.27 585.327 352.56 584.992 353.139C584.657 353.719 584.488 354.553 584.485 355.641C584.485 356.368 584.56 356.983 584.711 357.486C584.864 357.986 585.081 358.365 585.363 358.624C585.644 358.879 585.982 359.007 586.377 359.007ZM594.123 360.119C593.538 360.119 593.015 360.018 592.555 359.817C592.097 359.615 591.735 359.335 591.468 358.977C591.204 358.616 591.062 358.199 591.042 357.724H592.38C592.397 357.983 592.484 358.207 592.64 358.398C592.799 358.585 593.006 358.73 593.262 358.832C593.518 358.935 593.802 358.986 594.114 358.986C594.458 358.986 594.762 358.926 595.026 358.807C595.293 358.687 595.502 358.521 595.653 358.308C595.803 358.092 595.879 357.844 595.879 357.562C595.879 357.27 595.803 357.013 595.653 356.791C595.505 356.567 595.288 356.391 595.001 356.263C594.717 356.135 594.373 356.071 593.97 356.071H593.232V354.997H593.97C594.293 354.997 594.578 354.939 594.822 354.822C595.069 354.706 595.262 354.544 595.401 354.337C595.541 354.126 595.61 353.881 595.61 353.599C595.61 353.33 595.549 353.095 595.427 352.896C595.308 352.695 595.137 352.537 594.916 352.423C594.697 352.31 594.438 352.253 594.14 352.253C593.856 352.253 593.59 352.305 593.343 352.411C593.099 352.513 592.9 352.661 592.747 352.854C592.593 353.044 592.511 353.273 592.499 353.54H591.225C591.239 353.068 591.379 352.653 591.643 352.295C591.91 351.937 592.262 351.658 592.7 351.456C593.137 351.254 593.623 351.153 594.157 351.153C594.717 351.153 595.2 351.263 595.606 351.482C596.015 351.697 596.33 351.986 596.552 352.347C596.776 352.707 596.887 353.102 596.884 353.531C596.887 354.02 596.751 354.435 596.475 354.776C596.203 355.116 595.839 355.345 595.384 355.462V355.53C595.964 355.618 596.413 355.848 596.731 356.22C597.052 356.592 597.211 357.054 597.208 357.605C597.211 358.085 597.078 358.516 596.808 358.896C596.541 359.277 596.176 359.577 595.712 359.795C595.249 360.011 594.72 360.119 594.123 360.119Z" fill="#A2A6AE"/>
<path d="M695.303 360.119C694.717 360.119 694.195 360.018 693.734 359.817C693.277 359.615 692.915 359.335 692.648 358.977C692.384 358.616 692.242 358.199 692.222 357.724H693.56C693.577 357.983 693.663 358.207 693.82 358.398C693.979 358.585 694.186 358.73 694.442 358.832C694.698 358.935 694.982 358.986 695.294 358.986C695.638 358.986 695.942 358.926 696.206 358.807C696.473 358.687 696.682 358.521 696.832 358.308C696.983 358.092 697.058 357.844 697.058 357.562C697.058 357.27 696.983 357.013 696.832 356.791C696.685 356.567 696.467 356.391 696.18 356.263C695.896 356.135 695.553 356.071 695.149 356.071H694.412V354.997H695.149C695.473 354.997 695.757 354.939 696.002 354.822C696.249 354.706 696.442 354.544 696.581 354.337C696.72 354.126 696.79 353.881 696.79 353.599C696.79 353.33 696.729 353.095 696.607 352.896C696.487 352.695 696.317 352.537 696.095 352.423C695.877 352.31 695.618 352.253 695.32 352.253C695.036 352.253 694.77 352.305 694.523 352.411C694.278 352.513 694.08 352.661 693.926 352.854C693.773 353.044 693.69 353.273 693.679 353.54H692.405C692.419 353.068 692.558 352.653 692.823 352.295C693.09 351.937 693.442 351.658 693.879 351.456C694.317 351.254 694.803 351.153 695.337 351.153C695.896 351.153 696.379 351.263 696.786 351.482C697.195 351.697 697.51 351.986 697.732 352.347C697.956 352.707 698.067 353.102 698.064 353.531C698.067 354.02 697.93 354.435 697.655 354.776C697.382 355.116 697.019 355.345 696.564 355.462V355.53C697.144 355.618 697.592 355.848 697.911 356.22C698.232 356.592 698.391 357.054 698.388 357.605C698.391 358.085 698.257 358.516 697.987 358.896C697.72 359.277 697.355 359.577 696.892 359.795C696.429 360.011 695.899 360.119 695.303 360.119ZM703.037 360.145C702.364 360.142 701.788 359.964 701.311 359.612C700.834 359.26 700.469 358.747 700.216 358.074C699.963 357.401 699.837 356.589 699.837 355.641C699.837 354.695 699.963 353.886 700.216 353.216C700.472 352.545 700.838 352.034 701.315 351.682C701.796 351.33 702.369 351.153 703.037 351.153C703.705 351.153 704.277 351.331 704.754 351.686C705.232 352.038 705.597 352.55 705.85 353.22C706.105 353.888 706.233 354.695 706.233 355.641C706.233 356.592 706.107 357.405 705.854 358.078C705.601 358.749 705.236 359.261 704.759 359.616C704.281 359.969 703.707 360.145 703.037 360.145ZM703.037 359.007C703.628 359.007 704.09 358.719 704.422 358.142C704.757 357.565 704.925 356.732 704.925 355.641C704.925 354.916 704.848 354.304 704.695 353.804C704.544 353.301 704.327 352.92 704.043 352.662C703.761 352.401 703.426 352.27 703.037 352.27C702.449 352.27 701.987 352.56 701.652 353.139C701.317 353.719 701.148 354.553 701.145 355.641C701.145 356.368 701.22 356.983 701.371 357.486C701.524 357.986 701.742 358.365 702.023 358.624C702.304 358.879 702.642 359.007 703.037 359.007ZM711.086 350.864L708.273 361.312H707.135L709.948 350.864H711.086ZM715.189 360.145C714.516 360.142 713.941 359.964 713.464 359.612C712.986 359.26 712.621 358.747 712.368 358.074C712.116 357.401 711.989 356.589 711.989 355.641C711.989 354.695 712.116 353.886 712.368 353.216C712.624 352.545 712.991 352.034 713.468 351.682C713.948 351.33 714.522 351.153 715.189 351.153C715.857 351.153 716.429 351.331 716.907 351.686C717.384 352.038 717.749 352.55 718.002 353.22C718.258 353.888 718.385 354.695 718.385 355.641C718.385 356.592 718.259 357.405 718.006 358.078C717.753 358.749 717.388 359.261 716.911 359.616C716.434 359.969 715.86 360.145 715.189 360.145ZM715.189 359.007C715.78 359.007 716.242 358.719 716.574 358.142C716.91 357.565 717.077 356.732 717.077 355.641C717.077 354.916 717 354.304 716.847 353.804C716.696 353.301 716.479 352.92 716.195 352.662C715.914 352.401 715.579 352.27 715.189 352.27C714.601 352.27 714.14 352.56 713.804 353.139C713.469 353.719 713.3 354.553 713.297 355.641C713.297 356.368 713.373 356.983 713.523 357.486C713.677 357.986 713.894 358.365 714.175 358.624C714.456 358.879 714.794 359.007 715.189 359.007ZM719.714 358.295V357.23L723.485 351.273H724.325V352.841H723.792L721.095 357.111V357.179H726.264V358.295H719.714ZM723.852 360V357.972L723.86 357.486V351.273H725.109V360H723.852Z" fill="#A2A6AE"/>
<path d="M821.072 360V359.045L824.025 355.986C824.34 355.653 824.6 355.362 824.805 355.112C825.012 354.859 825.167 354.619 825.269 354.392C825.372 354.165 825.423 353.923 825.423 353.668C825.423 353.378 825.355 353.128 825.218 352.918C825.082 352.705 824.896 352.541 824.66 352.428C824.424 352.311 824.159 352.253 823.863 352.253C823.551 352.253 823.278 352.317 823.045 352.445C822.812 352.572 822.633 352.753 822.508 352.986C822.383 353.219 822.32 353.491 822.32 353.804H821.063C821.063 353.273 821.186 352.808 821.43 352.411C821.674 352.013 822.009 351.705 822.436 351.486C822.862 351.264 823.346 351.153 823.889 351.153C824.437 351.153 824.92 351.263 825.338 351.482C825.758 351.697 826.086 351.993 826.322 352.368C826.558 352.74 826.676 353.161 826.676 353.629C826.676 353.953 826.615 354.27 826.492 354.58C826.373 354.889 826.164 355.234 825.866 355.615C825.568 355.993 825.153 356.452 824.622 356.991L822.887 358.807V358.871H826.816V360H821.072ZM831.38 360.119C830.769 360.119 830.23 360.014 829.761 359.804C829.295 359.594 828.93 359.304 828.666 358.935C828.401 358.565 828.271 358.145 828.274 357.673C828.271 357.304 828.346 356.964 828.499 356.655C828.656 356.342 828.867 356.082 829.134 355.875C829.401 355.665 829.7 355.531 830.029 355.474V355.423C829.595 355.318 829.247 355.085 828.985 354.724C828.724 354.364 828.595 353.949 828.597 353.48C828.595 353.034 828.713 352.636 828.951 352.287C829.193 351.935 829.524 351.658 829.944 351.456C830.365 351.254 830.843 351.153 831.38 351.153C831.911 351.153 832.386 351.256 832.803 351.46C833.224 351.662 833.555 351.939 833.796 352.291C834.038 352.641 834.16 353.037 834.163 353.48C834.16 353.949 834.026 354.364 833.762 354.724C833.498 355.085 833.154 355.318 832.731 355.423V355.474C833.058 355.531 833.352 355.665 833.613 355.875C833.877 356.082 834.088 356.342 834.244 356.655C834.403 356.964 834.484 357.304 834.487 357.673C834.484 358.145 834.35 358.565 834.086 358.935C833.822 359.304 833.455 359.594 832.987 359.804C832.521 360.014 831.985 360.119 831.38 360.119ZM831.38 359.041C831.741 359.041 832.053 358.982 832.318 358.862C832.582 358.74 832.786 358.571 832.931 358.355C833.076 358.136 833.15 357.881 833.153 357.588C833.15 357.284 833.07 357.016 832.914 356.783C832.761 356.55 832.552 356.366 832.288 356.233C832.024 356.099 831.721 356.033 831.38 356.033C831.036 356.033 830.731 356.099 830.464 356.233C830.197 356.366 829.987 356.55 829.833 356.783C829.68 357.016 829.605 357.284 829.607 357.588C829.605 357.881 829.674 358.136 829.816 358.355C829.961 358.571 830.167 358.74 830.434 358.862C830.701 358.982 831.017 359.041 831.38 359.041ZM831.38 354.98C831.67 354.98 831.927 354.922 832.151 354.805C832.376 354.689 832.552 354.527 832.68 354.32C832.811 354.112 832.877 353.869 832.88 353.591C832.877 353.318 832.812 353.08 832.684 352.875C832.559 352.67 832.384 352.513 832.16 352.402C831.936 352.288 831.676 352.232 831.38 352.232C831.079 352.232 830.815 352.288 830.588 352.402C830.363 352.513 830.188 352.67 830.063 352.875C829.938 353.08 829.877 353.318 829.88 353.591C829.877 353.869 829.94 354.112 830.068 354.32C830.195 354.527 830.372 354.689 830.596 354.805C830.823 354.922 831.085 354.98 831.38 354.98ZM839.354 350.864L836.542 361.312H835.404L838.216 350.864H839.354ZM843.458 360.145C842.785 360.142 842.209 359.964 841.732 359.612C841.255 359.26 840.89 358.747 840.637 358.074C840.384 357.401 840.258 356.589 840.258 355.641C840.258 354.695 840.384 353.886 840.637 353.216C840.893 352.545 841.259 352.034 841.736 351.682C842.216 351.33 842.79 351.153 843.458 351.153C844.126 351.153 844.698 351.331 845.175 351.686C845.653 352.038 846.018 352.55 846.27 353.22C846.526 353.888 846.654 354.695 846.654 355.641C846.654 356.592 846.528 357.405 846.275 358.078C846.022 358.749 845.657 359.261 845.18 359.616C844.702 359.969 844.128 360.145 843.458 360.145ZM843.458 359.007C844.049 359.007 844.51 358.719 844.843 358.142C845.178 357.565 845.346 356.732 845.346 355.641C845.346 354.916 845.269 354.304 845.116 353.804C844.965 353.301 844.748 352.92 844.464 352.662C844.182 352.401 843.847 352.27 843.458 352.27C842.87 352.27 842.408 352.56 842.073 353.139C841.738 353.719 841.569 354.553 841.566 355.641C841.566 356.368 841.641 356.983 841.792 357.486C841.945 357.986 842.162 358.365 842.444 358.624C842.725 358.879 843.063 359.007 843.458 359.007ZM851.046 360.119C850.512 360.119 850.032 360.017 849.606 359.812C849.183 359.605 848.845 359.321 848.592 358.96C848.339 358.599 848.204 358.188 848.187 357.724H849.465C849.497 358.099 849.663 358.408 849.964 358.649C850.265 358.891 850.626 359.011 851.046 359.011C851.382 359.011 851.678 358.935 851.937 358.781C852.198 358.625 852.403 358.411 852.551 358.138C852.701 357.865 852.776 357.554 852.776 357.205C852.776 356.849 852.7 356.533 852.546 356.254C852.393 355.976 852.181 355.757 851.911 355.598C851.644 355.439 851.338 355.358 850.991 355.355C850.727 355.355 850.461 355.401 850.194 355.491C849.927 355.582 849.711 355.702 849.546 355.849L848.34 355.67L848.83 351.273H853.629V352.402H849.926L849.649 354.844H849.7C849.87 354.679 850.096 354.541 850.377 354.43C850.661 354.32 850.965 354.264 851.289 354.264C851.82 354.264 852.294 354.391 852.708 354.643C853.126 354.896 853.454 355.241 853.693 355.679C853.934 356.114 854.053 356.614 854.051 357.179C854.053 357.744 853.926 358.249 853.667 358.692C853.411 359.135 853.056 359.484 852.602 359.74C852.15 359.993 851.632 360.119 851.046 360.119Z" fill="#A2A6AE"/>
<line y1="-0.5" x2="880" y2="-0.5" transform="matrix(1 2.74204e-09 2.78724e-06 -1 0 0)" stroke="#EEEFF2" stroke-dasharray="3.18 3.18"/>
<line y1="-0.5" x2="880" y2="-0.5" transform="matrix(1 2.74204e-09 2.78724e-06 -1 0 55.3335)" stroke="#EEEFF2" stroke-dasharray="3.18 3.18"/>
<line y1="-0.5" x2="880" y2="-0.5" transform="matrix(1 2.74204e-09 2.78724e-06 -1 0 110.667)" stroke="#EEEFF2" stroke-dasharray="3.18 3.18"/>
<line y1="-0.5" x2="880" y2="-0.5" transform="matrix(1 2.74204e-09 2.78724e-06 -1 0 166)" stroke="#EEEFF2" stroke-dasharray="3.18 3.18"/>
<line y1="-0.5" x2="880" y2="-0.5" transform="matrix(1 2.74204e-09 2.78724e-06 -1 0 221.333)" stroke="#EEEFF2" stroke-dasharray="3.18 3.18"/>
<line y1="-0.5" x2="880" y2="-0.5" transform="matrix(1 2.74204e-09 2.78724e-06 -1 0 276.667)" stroke="#EEEFF2" stroke-dasharray="3.18 3.18"/>
<line y1="331.5" x2="880" y2="331.5" stroke="#E6E7EA"/>
<path d="M3.88636 16.1193C3.49716 16.1136 3.11364 16.0426 2.7358 15.9062C2.3608 15.7699 2.01989 15.5426 1.71307 15.2244C1.40625 14.9062 1.16051 14.4787 0.975852 13.9418C0.794034 13.4048 0.703125 12.7344 0.703125 11.9304C0.703125 11.169 0.778409 10.4929 0.928977 9.90199C1.08239 9.31108 1.30256 8.8125 1.58949 8.40625C1.87642 7.99716 2.22301 7.68608 2.62926 7.47301C3.03551 7.25994 3.49148 7.15341 3.99716 7.15341C4.51705 7.15341 4.97869 7.25568 5.3821 7.46023C5.78551 7.66477 6.11222 7.94744 6.36222 8.30824C6.61506 8.66903 6.77557 9.07955 6.84375 9.53977H5.54403C5.45597 9.17614 5.28125 8.87926 5.01989 8.64915C4.75852 8.41903 4.41761 8.30398 3.99716 8.30398C3.35795 8.30398 2.85938 8.58239 2.50142 9.1392C2.14631 9.69602 1.96733 10.4702 1.96449 11.4616H2.02841C2.17898 11.2145 2.36364 11.0043 2.58239 10.831C2.80398 10.6548 3.05114 10.5199 3.32386 10.4261C3.59943 10.3295 3.8892 10.2812 4.19318 10.2812C4.69886 10.2812 5.15625 10.4048 5.56534 10.652C5.97727 10.8963 6.3054 11.2344 6.54972 11.6662C6.79403 12.098 6.91619 12.5923 6.91619 13.1491C6.91619 13.706 6.78977 14.2102 6.53693 14.6619C6.28693 15.1136 5.93466 15.4716 5.48011 15.7358C5.02557 15.9972 4.49432 16.125 3.88636 16.1193ZM3.8821 15.0114C4.21733 15.0114 4.51705 14.929 4.78125 14.7642C5.04545 14.5994 5.25426 14.3778 5.40767 14.0994C5.56108 13.821 5.63778 13.5099 5.63778 13.1662C5.63778 12.831 5.5625 12.5256 5.41193 12.25C5.2642 11.9744 5.05966 11.7557 4.7983 11.5938C4.53977 11.4318 4.24432 11.3509 3.91193 11.3509C3.65909 11.3509 3.42472 11.3991 3.20881 11.4957C2.99574 11.5923 2.80824 11.7259 2.64631 11.8963C2.48438 12.0668 2.35653 12.2628 2.26278 12.4844C2.17188 12.7031 2.12642 12.9347 2.12642 13.179C2.12642 13.5057 2.2017 13.8082 2.35227 14.0866C2.50568 14.3651 2.71449 14.5895 2.97869 14.7599C3.24574 14.9276 3.54688 15.0114 3.8821 15.0114ZM11.5067 16.1449C10.8335 16.142 10.2582 15.9645 9.78089 15.6122C9.30362 15.2599 8.93857 14.7472 8.68572 14.0739C8.43288 13.4006 8.30646 12.5895 8.30646 11.6406C8.30646 10.6946 8.43288 9.88636 8.68572 9.21591C8.94141 8.54545 9.30788 8.03409 9.78516 7.68182C10.2653 7.32955 10.8391 7.15341 11.5067 7.15341C12.1744 7.15341 12.7468 7.33097 13.2241 7.68608C13.7013 8.03835 14.0664 8.54972 14.3192 9.22017C14.5749 9.88778 14.7028 10.6946 14.7028 11.6406C14.7028 12.5923 14.5763 13.4048 14.3235 14.0781C14.0707 14.7486 13.7056 15.2614 13.2283 15.6165C12.7511 15.9688 12.1772 16.1449 11.5067 16.1449ZM11.5067 15.0071C12.0977 15.0071 12.5593 14.7188 12.8917 14.142C13.2269 13.5653 13.3945 12.7315 13.3945 11.6406C13.3945 10.9162 13.3178 10.304 13.1644 9.80398C13.0138 9.30114 12.7965 8.92045 12.5124 8.66193C12.2312 8.40057 11.896 8.26989 11.5067 8.26989C10.9187 8.26989 10.457 8.55966 10.1218 9.1392C9.78658 9.71875 9.61754 10.5526 9.6147 11.6406C9.6147 12.3679 9.68999 12.983 9.84055 13.4858C9.99396 13.9858 10.2113 14.3651 10.4925 14.6236C10.7738 14.8793 11.1119 15.0071 11.5067 15.0071ZM17.4034 13.7798L17.3949 12.2244H17.6165L20.2244 9.45455H21.75L18.7756 12.608H18.5753L17.4034 13.7798ZM16.2315 16V7.27273H17.5057V16H16.2315ZM20.3651 16L18.0213 12.8892L18.8991 11.9986L21.929 16H20.3651ZM30.9492 9.56534C30.9038 9.16193 30.7163 8.84943 30.3867 8.62784C30.0572 8.40341 29.6424 8.29119 29.1424 8.29119C28.7844 8.29119 28.4748 8.34801 28.2134 8.46165C27.9521 8.57244 27.7489 8.72585 27.604 8.92188C27.462 9.11506 27.391 9.33523 27.391 9.58239C27.391 9.78977 27.4393 9.96875 27.5359 10.1193C27.6353 10.2699 27.7646 10.3963 27.9237 10.4986C28.0856 10.598 28.2589 10.6818 28.4435 10.75C28.6282 10.8153 28.8058 10.8693 28.9762 10.9119L29.8285 11.1335C30.1069 11.2017 30.3924 11.294 30.685 11.4105C30.9776 11.527 31.2489 11.6804 31.4989 11.8707C31.7489 12.0611 31.9506 12.2969 32.104 12.5781C32.2603 12.8594 32.3384 13.196 32.3384 13.5881C32.3384 14.0824 32.2106 14.5213 31.9549 14.9048C31.7021 15.2884 31.3342 15.5909 30.8512 15.8125C30.3711 16.0341 29.7901 16.1449 29.1083 16.1449C28.4549 16.1449 27.8896 16.0412 27.4123 15.8338C26.935 15.6264 26.5614 15.3324 26.2915 14.9517C26.0217 14.5682 25.8725 14.1136 25.8441 13.5881H27.1651C27.1907 13.9034 27.293 14.1662 27.4719 14.3764C27.6538 14.5838 27.8853 14.7386 28.1665 14.8409C28.4506 14.9403 28.7617 14.9901 29.0998 14.9901C29.4719 14.9901 29.8029 14.9318 30.0927 14.8153C30.3853 14.696 30.6154 14.5312 30.783 14.321C30.9506 14.108 31.0344 13.8594 31.0344 13.5753C31.0344 13.3168 30.9606 13.1051 30.8129 12.9403C30.668 12.7756 30.4705 12.6392 30.2205 12.5312C29.9734 12.4233 29.6935 12.3281 29.381 12.2457L28.3498 11.9645C27.6509 11.7741 27.0969 11.4943 26.6879 11.125C26.2816 10.7557 26.0785 10.267 26.0785 9.65909C26.0785 9.15625 26.2148 8.71733 26.4876 8.34233C26.7603 7.96733 27.1296 7.67614 27.5955 7.46875C28.0614 7.25852 28.587 7.15341 29.1722 7.15341C29.7631 7.15341 30.2844 7.2571 30.7362 7.46449C31.1907 7.67188 31.5487 7.95739 31.81 8.32102C32.0714 8.68182 32.2077 9.09659 32.2191 9.56534H30.9492ZM34.5788 16H33.1811L36.3217 7.27273H37.843L40.9837 16H39.5859L37.1186 8.85795H37.0504L34.5788 16ZM34.8132 12.5824H39.3473V13.6903H34.8132V12.5824ZM42.244 16V7.27273H45.3548C46.0309 7.27273 46.592 7.3892 47.038 7.62216C47.4869 7.85511 47.8221 8.17756 48.0437 8.58949C48.2653 8.99858 48.3761 9.47159 48.3761 10.0085C48.3761 10.5426 48.2638 11.0128 48.0394 11.419C47.8178 11.8224 47.4826 12.1364 47.0337 12.3608C46.5877 12.5852 46.0266 12.6974 45.3505 12.6974H42.994V11.5639H45.2312C45.6573 11.5639 46.0039 11.5028 46.271 11.3807C46.5408 11.2585 46.7383 11.081 46.8633 10.848C46.9883 10.6151 47.0508 10.3352 47.0508 10.0085C47.0508 9.67898 46.9869 9.39347 46.859 9.15199C46.734 8.91051 46.5366 8.72585 46.2667 8.59801C45.9996 8.46733 45.6488 8.40199 45.2141 8.40199H43.5607V16H42.244ZM46.5522 12.0625L48.7085 16H47.2085L45.0948 12.0625H46.5522Z" fill="#A2A6AE"/>
<path d="M3.72017 71.4528C3.18608 71.4528 2.70597 71.3505 2.27983 71.146C1.85653 70.9386 1.51847 70.6545 1.26562 70.2937C1.01278 69.9329 0.877841 69.521 0.860795 69.0579H2.1392C2.17045 69.4329 2.33665 69.7412 2.63778 69.9826C2.93892 70.2241 3.29972 70.3449 3.72017 70.3449C4.0554 70.3449 4.35227 70.2682 4.6108 70.1147C4.87216 69.9585 5.0767 69.744 5.22443 69.4713C5.375 69.1986 5.45028 68.8875 5.45028 68.538C5.45028 68.1829 5.37358 67.8662 5.22017 67.5878C5.06676 67.3093 4.85511 67.0906 4.58523 66.9315C4.31818 66.7724 4.01136 66.6915 3.66477 66.6886C3.40057 66.6886 3.13494 66.7341 2.8679 66.825C2.60085 66.9159 2.38494 67.0352 2.22017 67.1829L1.0142 67.004L1.50426 62.6062H6.30256V63.7355H2.59943L2.32244 66.1772H2.37358C2.54403 66.0125 2.76989 65.8747 3.05114 65.7639C3.33523 65.6531 3.6392 65.5977 3.96307 65.5977C4.49432 65.5977 4.96733 65.7241 5.3821 65.977C5.79972 66.2298 6.12784 66.575 6.36648 67.0125C6.60795 67.4471 6.72727 67.9471 6.72443 68.5125C6.72727 69.0778 6.59943 69.5821 6.34091 70.0253C6.08523 70.4684 5.73011 70.8179 5.27557 71.0736C4.82386 71.3264 4.3054 71.4528 3.72017 71.4528ZM11.3192 71.4784C10.646 71.4755 10.0707 71.298 9.59339 70.9457C9.11612 70.5934 8.75107 70.0807 8.49822 69.4074C8.24538 68.7341 8.11896 67.923 8.11896 66.9741C8.11896 66.0281 8.24538 65.2199 8.49822 64.5494C8.75391 63.879 9.12038 63.3676 9.59766 63.0153C10.0778 62.663 10.6516 62.4869 11.3192 62.4869C11.9869 62.4869 12.5593 62.6645 13.0366 63.0196C13.5138 63.3718 13.8789 63.8832 14.1317 64.5537C14.3874 65.2213 14.5153 66.0281 14.5153 66.9741C14.5153 67.9258 14.3888 68.7383 14.136 69.4116C13.8832 70.0821 13.5181 70.5949 13.0408 70.95C12.5636 71.3022 11.9897 71.4784 11.3192 71.4784ZM11.3192 70.3406C11.9102 70.3406 12.3718 70.0522 12.7042 69.4755C13.0394 68.8988 13.207 68.065 13.207 66.9741C13.207 66.2497 13.1303 65.6375 12.9769 65.1375C12.8263 64.6346 12.609 64.254 12.3249 63.9954C12.0437 63.7341 11.7085 63.6034 11.3192 63.6034C10.7312 63.6034 10.2695 63.8932 9.9343 64.4727C9.59908 65.0522 9.43004 65.8861 9.4272 66.9741C9.4272 67.7014 9.50249 68.3165 9.65305 68.8193C9.80646 69.3193 10.0238 69.6986 10.305 69.9571C10.5863 70.2128 10.9244 70.3406 11.3192 70.3406ZM17.2159 69.1133L17.2074 67.5579H17.429L20.0369 64.788H21.5625L18.5881 67.9415H18.3878L17.2159 69.1133ZM16.044 71.3335V62.6062H17.3182V71.3335H16.044ZM20.1776 71.3335L17.8338 68.2227L18.7116 67.3321L21.7415 71.3335H20.1776ZM30.7617 64.8988C30.7163 64.4954 30.5288 64.1829 30.1992 63.9613C29.8697 63.7369 29.4549 63.6247 28.9549 63.6247C28.5969 63.6247 28.2873 63.6815 28.0259 63.7951C27.7646 63.9059 27.5614 64.0593 27.4165 64.2554C27.2745 64.4486 27.2035 64.6687 27.2035 64.9159C27.2035 65.1233 27.2518 65.3022 27.3484 65.4528C27.4478 65.6034 27.5771 65.7298 27.7362 65.8321C27.8981 65.9315 28.0714 66.0153 28.256 66.0835C28.4407 66.1488 28.6183 66.2028 28.7887 66.2454L29.641 66.467C29.9194 66.5352 30.2049 66.6275 30.4975 66.744C30.7901 66.8605 31.0614 67.0139 31.3114 67.2042C31.5614 67.3946 31.7631 67.6304 31.9165 67.9116C32.0728 68.1929 32.1509 68.5295 32.1509 68.9216C32.1509 69.4159 32.0231 69.8548 31.7674 70.2383C31.5146 70.6218 31.1467 70.9244 30.6637 71.146C30.1836 71.3676 29.6026 71.4784 28.9208 71.4784C28.2674 71.4784 27.7021 71.3747 27.2248 71.1673C26.7475 70.9599 26.3739 70.6659 26.104 70.2852C25.8342 69.9017 25.685 69.4471 25.6566 68.9216H26.9776C27.0032 69.2369 27.1055 69.4997 27.2844 69.7099C27.4663 69.9173 27.6978 70.0721 27.979 70.1744C28.2631 70.2738 28.5742 70.3236 28.9123 70.3236C29.2844 70.3236 29.6154 70.2653 29.9052 70.1488C30.1978 70.0295 30.4279 69.8647 30.5955 69.6545C30.7631 69.4415 30.8469 69.1929 30.8469 68.9088C30.8469 68.6503 30.7731 68.4386 30.6254 68.2738C30.4805 68.1091 30.283 67.9727 30.033 67.8647C29.7859 67.7568 29.506 67.6616 29.1935 67.5792L28.1623 67.298C27.4634 67.1076 26.9094 66.8278 26.5004 66.4585C26.0941 66.0892 25.891 65.6005 25.891 64.9926C25.891 64.4897 26.0273 64.0508 26.3001 63.6758C26.5728 63.3008 26.9421 63.0096 27.408 62.8022C27.8739 62.592 28.3995 62.4869 28.9847 62.4869C29.5756 62.4869 30.0969 62.5906 30.5487 62.798C31.0032 63.0054 31.3612 63.2909 31.6225 63.6545C31.8839 64.0153 32.0202 64.4301 32.0316 64.8988H30.7617ZM34.3913 71.3335H32.9936L36.1342 62.6062H37.6555L40.7962 71.3335H39.3984L36.9311 64.1915H36.8629L34.3913 71.3335ZM34.6257 67.9159H39.1598V69.0238H34.6257V67.9159ZM42.0565 71.3335V62.6062H45.1673C45.8434 62.6062 46.4045 62.7227 46.8505 62.9557C47.2994 63.1886 47.6346 63.5111 47.8562 63.923C48.0778 64.3321 48.1886 64.8051 48.1886 65.342C48.1886 65.8761 48.0763 66.3463 47.8519 66.7525C47.6303 67.1559 47.2951 67.4699 46.8462 67.6943C46.4002 67.9187 45.8391 68.0309 45.163 68.0309H42.8065V66.8974H45.0437C45.4698 66.8974 45.8164 66.8363 46.0835 66.7142C46.3533 66.592 46.5508 66.4145 46.6758 66.1815C46.8008 65.9486 46.8633 65.6687 46.8633 65.342C46.8633 65.0125 46.7994 64.727 46.6715 64.4855C46.5465 64.244 46.3491 64.0593 46.0792 63.9315C45.8121 63.8008 45.4613 63.7355 45.0266 63.7355H43.3732V71.3335H42.0565ZM46.3647 67.396L48.521 71.3335H47.021L44.9073 67.396H46.3647Z" fill="#A2A6AE"/>
<path d="M0.65625 124.962V123.897L4.42756 117.939H5.26705V119.507H4.73438L2.03693 123.777V123.845H7.20597V124.962H0.65625ZM4.79403 126.667V124.638L4.80256 124.152V117.939H6.05114V126.667H4.79403ZM11.7294 126.811C11.0561 126.809 10.4808 126.631 10.0036 126.279C9.52628 125.926 9.16122 125.414 8.90838 124.74C8.65554 124.067 8.52912 123.256 8.52912 122.307C8.52912 121.361 8.65554 120.553 8.90838 119.882C9.16406 119.212 9.53054 118.701 10.0078 118.348C10.4879 117.996 11.0618 117.82 11.7294 117.82C12.397 117.82 12.9695 117.997 13.4467 118.353C13.924 118.705 14.2891 119.216 14.5419 119.887C14.7976 120.554 14.9254 121.361 14.9254 122.307C14.9254 123.259 14.799 124.071 14.5462 124.745C14.2933 125.415 13.9283 125.928 13.451 126.283C12.9737 126.635 12.3999 126.811 11.7294 126.811ZM11.7294 125.674C12.3203 125.674 12.782 125.385 13.1143 124.809C13.4496 124.232 13.6172 123.398 13.6172 122.307C13.6172 121.583 13.5405 120.97 13.3871 120.47C13.2365 119.968 13.0192 119.587 12.7351 119.328C12.4538 119.067 12.1186 118.936 11.7294 118.936C11.1413 118.936 10.6797 119.226 10.3445 119.806C10.0092 120.385 9.8402 121.219 9.83736 122.307C9.83736 123.034 9.91264 123.649 10.0632 124.152C10.2166 124.652 10.4339 125.032 10.7152 125.29C10.9964 125.546 11.3345 125.674 11.7294 125.674ZM17.6261 124.446L17.6175 122.891H17.8391L20.4471 120.121H21.9727L18.9982 123.274H18.7979L17.6261 124.446ZM16.4542 126.667V117.939H17.7283V126.667H16.4542ZM20.5877 126.667L18.244 123.556L19.1218 122.665L22.1516 126.667H20.5877ZM31.1719 120.232C31.1264 119.828 30.9389 119.516 30.6094 119.294C30.2798 119.07 29.8651 118.958 29.3651 118.958C29.0071 118.958 28.6974 119.015 28.4361 119.128C28.1747 119.239 27.9716 119.392 27.8267 119.588C27.6847 119.782 27.6136 120.002 27.6136 120.249C27.6136 120.456 27.6619 120.635 27.7585 120.786C27.858 120.936 27.9872 121.063 28.1463 121.165C28.3082 121.265 28.4815 121.348 28.6662 121.417C28.8509 121.482 29.0284 121.536 29.1989 121.578L30.0511 121.8C30.3295 121.868 30.6151 121.961 30.9077 122.077C31.2003 122.193 31.4716 122.347 31.7216 122.537C31.9716 122.728 32.1733 122.963 32.3267 123.245C32.483 123.526 32.5611 123.863 32.5611 124.255C32.5611 124.749 32.4332 125.188 32.1776 125.571C31.9247 125.955 31.5568 126.257 31.0739 126.479C30.5938 126.701 30.0128 126.811 29.331 126.811C28.6776 126.811 28.1122 126.708 27.6349 126.5C27.1577 126.293 26.7841 125.999 26.5142 125.618C26.2443 125.235 26.0952 124.78 26.0668 124.255H27.3878C27.4134 124.57 27.5156 124.833 27.6946 125.043C27.8764 125.25 28.108 125.405 28.3892 125.507C28.6733 125.607 28.9844 125.657 29.3224 125.657C29.6946 125.657 30.0256 125.598 30.3153 125.482C30.608 125.363 30.8381 125.198 31.0057 124.988C31.1733 124.774 31.2571 124.526 31.2571 124.242C31.2571 123.983 31.1832 123.772 31.0355 123.607C30.8906 123.442 30.6932 123.306 30.4432 123.198C30.196 123.09 29.9162 122.995 29.6037 122.912L28.5724 122.631C27.8736 122.441 27.3196 122.161 26.9105 121.792C26.5043 121.422 26.3011 120.934 26.3011 120.326C26.3011 119.823 26.4375 119.384 26.7102 119.009C26.983 118.634 27.3523 118.343 27.8182 118.135C28.2841 117.925 28.8097 117.82 29.3949 117.82C29.9858 117.82 30.5071 117.924 30.9588 118.131C31.4134 118.338 31.7713 118.624 32.0327 118.988C32.294 119.348 32.4304 119.763 32.4418 120.232H31.1719ZM34.8015 126.667H33.4038L36.5444 117.939H38.0657L41.2063 126.667H39.8086L37.3413 119.524H37.2731L34.8015 126.667ZM35.0359 123.249H39.57V124.357H35.0359V123.249ZM42.4666 126.667V117.939H45.5774C46.2536 117.939 46.8146 118.056 47.2607 118.289C47.7095 118.522 48.0447 118.844 48.2663 119.256C48.4879 119.665 48.5987 120.138 48.5987 120.675C48.5987 121.209 48.4865 121.679 48.2621 122.086C48.0405 122.489 47.7053 122.803 47.2564 123.027C46.8104 123.252 46.2493 123.364 45.5732 123.364H43.2166V122.23H45.4538C45.88 122.23 46.2266 122.169 46.4936 122.047C46.7635 121.925 46.9609 121.747 47.0859 121.515C47.2109 121.282 47.2734 121.002 47.2734 120.675C47.2734 120.345 47.2095 120.06 47.0817 119.818C46.9567 119.577 46.7592 119.392 46.4893 119.265C46.2223 119.134 45.8714 119.068 45.4368 119.068H43.7834V126.667H42.4666ZM46.7749 122.729L48.9311 126.667H47.4311L45.3175 122.729H46.7749Z" fill="#A2A6AE"/>
<path d="M3.87784 182.119C3.29261 182.119 2.76989 182.018 2.30966 181.817C1.85227 181.615 1.49006 181.335 1.22301 180.977C0.958807 180.616 0.816761 180.199 0.796875 179.724H2.13494C2.15199 179.983 2.23864 180.207 2.39489 180.398C2.55398 180.585 2.76136 180.73 3.01705 180.832C3.27273 180.935 3.55682 180.986 3.86932 180.986C4.21307 180.986 4.51705 180.926 4.78125 180.807C5.0483 180.687 5.2571 180.521 5.40767 180.308C5.55824 180.092 5.63352 179.844 5.63352 179.562C5.63352 179.27 5.55824 179.013 5.40767 178.791C5.25994 178.567 5.04261 178.391 4.75568 178.263C4.47159 178.135 4.12784 178.071 3.72443 178.071H2.98722V176.997H3.72443C4.0483 176.997 4.33239 176.939 4.5767 176.822C4.82386 176.706 5.01705 176.544 5.15625 176.337C5.29545 176.126 5.36506 175.881 5.36506 175.599C5.36506 175.33 5.30398 175.095 5.18182 174.896C5.0625 174.695 4.89205 174.537 4.67045 174.423C4.4517 174.31 4.19318 174.253 3.89489 174.253C3.6108 174.253 3.34517 174.305 3.09801 174.411C2.85369 174.513 2.65483 174.661 2.50142 174.854C2.34801 175.044 2.26563 175.273 2.25426 175.54H0.980114C0.994318 175.068 1.13352 174.653 1.39773 174.295C1.66477 173.937 2.01705 173.658 2.45455 173.456C2.89205 173.254 3.37784 173.153 3.91193 173.153C4.47159 173.153 4.95455 173.263 5.3608 173.482C5.76989 173.697 6.08523 173.986 6.30682 174.347C6.53125 174.707 6.64205 175.102 6.6392 175.531C6.64205 176.02 6.50568 176.435 6.23011 176.776C5.95739 177.116 5.59375 177.345 5.1392 177.462V177.53C5.71875 177.618 6.16761 177.848 6.4858 178.22C6.80682 178.592 6.96591 179.054 6.96307 179.605C6.96591 180.085 6.83239 180.516 6.5625 180.896C6.29545 181.277 5.9304 181.577 5.46733 181.795C5.00426 182.011 4.47443 182.119 3.87784 182.119ZM11.6122 182.145C10.9389 182.142 10.3636 181.964 9.88636 181.612C9.40909 181.26 9.04403 180.747 8.79119 180.074C8.53835 179.401 8.41193 178.589 8.41193 177.641C8.41193 176.695 8.53835 175.886 8.79119 175.216C9.04688 174.545 9.41335 174.034 9.89062 173.682C10.3707 173.33 10.9446 173.153 11.6122 173.153C12.2798 173.153 12.8523 173.331 13.3295 173.686C13.8068 174.038 14.1719 174.55 14.4247 175.22C14.6804 175.888 14.8082 176.695 14.8082 177.641C14.8082 178.592 14.6818 179.405 14.429 180.078C14.1761 180.749 13.8111 181.261 13.3338 181.616C12.8565 181.969 12.2827 182.145 11.6122 182.145ZM11.6122 181.007C12.2031 181.007 12.6648 180.719 12.9972 180.142C13.3324 179.565 13.5 178.732 13.5 177.641C13.5 176.916 13.4233 176.304 13.2699 175.804C13.1193 175.301 12.902 174.92 12.6179 174.662C12.3366 174.401 12.0014 174.27 11.6122 174.27C11.0241 174.27 10.5625 174.56 10.2273 175.139C9.89205 175.719 9.72301 176.553 9.72017 177.641C9.72017 178.368 9.79545 178.983 9.94602 179.486C10.0994 179.986 10.3168 180.365 10.598 180.624C10.8793 180.879 11.2173 181.007 11.6122 181.007ZM17.5089 179.78L17.5004 178.224H17.7219L20.3299 175.455H21.8555L18.881 178.608H18.6808L17.5089 179.78ZM16.337 182V173.273H17.6112V182H16.337ZM20.4705 182L18.1268 178.889L19.0046 177.999L22.0344 182H20.4705ZM31.0547 175.565C31.0092 175.162 30.8217 174.849 30.4922 174.628C30.1626 174.403 29.7479 174.291 29.2479 174.291C28.8899 174.291 28.5803 174.348 28.3189 174.462C28.0575 174.572 27.8544 174.726 27.7095 174.922C27.5675 175.115 27.4964 175.335 27.4964 175.582C27.4964 175.79 27.5447 175.969 27.6413 176.119C27.7408 176.27 27.87 176.396 28.0291 176.499C28.1911 176.598 28.3643 176.682 28.549 176.75C28.7337 176.815 28.9112 176.869 29.0817 176.912L29.9339 177.134C30.2124 177.202 30.4979 177.294 30.7905 177.411C31.0831 177.527 31.3544 177.68 31.6044 177.871C31.8544 178.061 32.0561 178.297 32.2095 178.578C32.3658 178.859 32.4439 179.196 32.4439 179.588C32.4439 180.082 32.3161 180.521 32.0604 180.905C31.8075 181.288 31.4396 181.591 30.9567 181.812C30.4766 182.034 29.8956 182.145 29.2138 182.145C28.5604 182.145 27.995 182.041 27.5178 181.834C27.0405 181.626 26.6669 181.332 26.397 180.952C26.1271 180.568 25.978 180.114 25.9496 179.588H27.2706C27.2962 179.903 27.3984 180.166 27.5774 180.376C27.7592 180.584 27.9908 180.739 28.272 180.841C28.5561 180.94 28.8672 180.99 29.2053 180.99C29.5774 180.99 29.9084 180.932 30.1982 180.815C30.4908 180.696 30.7209 180.531 30.8885 180.321C31.0561 180.108 31.1399 179.859 31.1399 179.575C31.1399 179.317 31.0661 179.105 30.9183 178.94C30.7734 178.776 30.576 178.639 30.326 178.531C30.0788 178.423 29.799 178.328 29.4865 178.246L28.4553 177.964C27.7564 177.774 27.2024 177.494 26.7933 177.125C26.3871 176.756 26.1839 176.267 26.1839 175.659C26.1839 175.156 26.3203 174.717 26.593 174.342C26.8658 173.967 27.2351 173.676 27.701 173.469C28.1669 173.259 28.6925 173.153 29.2777 173.153C29.8686 173.153 30.3899 173.257 30.8416 173.464C31.2962 173.672 31.6541 173.957 31.9155 174.321C32.1768 174.682 32.3132 175.097 32.3246 175.565H31.0547ZM34.6843 182H33.2866L36.4272 173.273H37.9485L41.0891 182H39.6914L37.2241 174.858H37.1559L34.6843 182ZM34.9187 178.582H39.4528V179.69H34.9187V178.582ZM42.3494 182V173.273H45.4602C46.1364 173.273 46.6974 173.389 47.1435 173.622C47.5923 173.855 47.9276 174.178 48.1491 174.589C48.3707 174.999 48.4815 175.472 48.4815 176.009C48.4815 176.543 48.3693 177.013 48.1449 177.419C47.9233 177.822 47.5881 178.136 47.1392 178.361C46.6932 178.585 46.1321 178.697 45.456 178.697H43.0994V177.564H45.3366C45.7628 177.564 46.1094 177.503 46.3764 177.381C46.6463 177.259 46.8438 177.081 46.9688 176.848C47.0938 176.615 47.1562 176.335 47.1562 176.009C47.1562 175.679 47.0923 175.393 46.9645 175.152C46.8395 174.911 46.642 174.726 46.3722 174.598C46.1051 174.467 45.7543 174.402 45.3196 174.402H43.6662V182H42.3494ZM46.6577 178.062L48.8139 182H47.3139L45.2003 178.062H46.6577Z" fill="#A2A6AE"/>
<path d="M0.839489 237.333V236.379L3.79261 233.319C4.10795 232.987 4.3679 232.696 4.57244 232.446C4.77983 232.193 4.93466 231.953 5.03693 231.726C5.1392 231.498 5.19034 231.257 5.19034 231.001C5.19034 230.711 5.12216 230.461 4.9858 230.251C4.84943 230.038 4.66335 229.875 4.42756 229.761C4.19176 229.645 3.92614 229.586 3.63068 229.586C3.31818 229.586 3.04545 229.65 2.8125 229.778C2.57955 229.906 2.40057 230.086 2.27557 230.319C2.15057 230.552 2.08807 230.825 2.08807 231.137H0.830966C0.830966 230.606 0.953125 230.142 1.19744 229.744C1.44176 229.346 1.77699 229.038 2.20312 228.819C2.62926 228.598 3.11364 228.487 3.65625 228.487C4.20455 228.487 4.6875 228.596 5.10511 228.815C5.52557 229.031 5.85369 229.326 6.08949 229.701C6.32528 230.074 6.44318 230.494 6.44318 230.963C6.44318 231.287 6.3821 231.603 6.25994 231.913C6.14063 232.223 5.93182 232.568 5.63352 232.949C5.33523 233.326 4.92045 233.785 4.3892 234.325L2.65483 236.14V236.204H6.58381V237.333H0.839489ZM11.2372 237.478C10.5639 237.476 9.98864 237.298 9.51136 236.946C9.03409 236.593 8.66903 236.081 8.41619 235.407C8.16335 234.734 8.03693 233.923 8.03693 232.974C8.03693 232.028 8.16335 231.22 8.41619 230.549C8.67188 229.879 9.03835 229.368 9.51562 229.015C9.99574 228.663 10.5696 228.487 11.2372 228.487C11.9048 228.487 12.4773 228.664 12.9545 229.02C13.4318 229.372 13.7969 229.883 14.0497 230.554C14.3054 231.221 14.4332 232.028 14.4332 232.974C14.4332 233.926 14.3068 234.738 14.054 235.412C13.8011 236.082 13.4361 236.595 12.9588 236.95C12.4815 237.302 11.9077 237.478 11.2372 237.478ZM11.2372 236.341C11.8281 236.341 12.2898 236.052 12.6222 235.476C12.9574 234.899 13.125 234.065 13.125 232.974C13.125 232.25 13.0483 231.637 12.8949 231.137C12.7443 230.635 12.527 230.254 12.2429 229.995C11.9616 229.734 11.6264 229.603 11.2372 229.603C10.6491 229.603 10.1875 229.893 9.85227 230.473C9.51705 231.052 9.34801 231.886 9.34517 232.974C9.34517 233.701 9.42045 234.316 9.57102 234.819C9.72443 235.319 9.94176 235.699 10.223 235.957C10.5043 236.213 10.8423 236.341 11.2372 236.341ZM17.1339 235.113L17.1254 233.558H17.3469L19.9549 230.788H21.4805L18.506 233.941H18.3058L17.1339 235.113ZM15.962 237.333V228.606H17.2362V237.333H15.962ZM20.0955 237.333L17.7518 234.223L18.6296 233.332L21.6594 237.333H20.0955ZM30.6797 230.899C30.6342 230.495 30.4467 230.183 30.1172 229.961C29.7876 229.737 29.3729 229.625 28.8729 229.625C28.5149 229.625 28.2053 229.682 27.9439 229.795C27.6825 229.906 27.4794 230.059 27.3345 230.255C27.1925 230.449 27.1214 230.669 27.1214 230.916C27.1214 231.123 27.1697 231.302 27.2663 231.453C27.3658 231.603 27.495 231.73 27.6541 231.832C27.8161 231.932 27.9893 232.015 28.174 232.083C28.3587 232.149 28.5362 232.203 28.7067 232.245L29.5589 232.467C29.8374 232.535 30.1229 232.628 30.4155 232.744C30.7081 232.86 30.9794 233.014 31.2294 233.204C31.4794 233.395 31.6811 233.63 31.8345 233.912C31.9908 234.193 32.0689 234.53 32.0689 234.922C32.0689 235.416 31.9411 235.855 31.6854 236.238C31.4325 236.622 31.0646 236.924 30.5817 237.146C30.1016 237.368 29.5206 237.478 28.8388 237.478C28.1854 237.478 27.62 237.375 27.1428 237.167C26.6655 236.96 26.2919 236.666 26.022 236.285C25.7521 235.902 25.603 235.447 25.5746 234.922H26.8956C26.9212 235.237 27.0234 235.5 27.2024 235.71C27.3842 235.917 27.6158 236.072 27.897 236.174C28.1811 236.274 28.4922 236.324 28.8303 236.324C29.2024 236.324 29.5334 236.265 29.8232 236.149C30.1158 236.03 30.3459 235.865 30.5135 235.655C30.6811 235.441 30.7649 235.193 30.7649 234.909C30.7649 234.65 30.6911 234.439 30.5433 234.274C30.3984 234.109 30.201 233.973 29.951 233.865C29.7038 233.757 29.424 233.662 29.1115 233.579L28.0803 233.298C27.3814 233.108 26.8274 232.828 26.4183 232.458C26.0121 232.089 25.8089 231.601 25.8089 230.993C25.8089 230.49 25.9453 230.051 26.218 229.676C26.4908 229.301 26.8601 229.01 27.326 228.802C27.7919 228.592 28.3175 228.487 28.9027 228.487C29.4936 228.487 30.0149 228.591 30.4666 228.798C30.9212 229.005 31.2791 229.291 31.5405 229.655C31.8018 230.015 31.9382 230.43 31.9496 230.899H30.6797ZM34.3093 237.333H32.9116L36.0522 228.606H37.5735L40.7141 237.333H39.3164L36.8491 230.191H36.7809L34.3093 237.333ZM34.5437 233.916H39.0778V235.024H34.5437V233.916ZM41.9744 237.333V228.606H45.0852C45.7614 228.606 46.3224 228.723 46.7685 228.956C47.2173 229.189 47.5526 229.511 47.7741 229.923C47.9957 230.332 48.1065 230.805 48.1065 231.342C48.1065 231.876 47.9943 232.346 47.7699 232.753C47.5483 233.156 47.2131 233.47 46.7642 233.694C46.3182 233.919 45.7571 234.031 45.081 234.031H42.7244V232.897H44.9616C45.3878 232.897 45.7344 232.836 46.0014 232.714C46.2713 232.592 46.4688 232.414 46.5938 232.182C46.7188 231.949 46.7812 231.669 46.7812 231.342C46.7812 231.012 46.7173 230.727 46.5895 230.485C46.4645 230.244 46.267 230.059 45.9972 229.932C45.7301 229.801 45.3793 229.735 44.9446 229.735H43.2912V237.333H41.9744ZM46.2827 233.396L48.4389 237.333H46.9389L44.8253 233.396H46.2827Z" fill="#A2A6AE"/>
<path d="M4.15057 283.939V292.667H2.82955V285.26H2.77841L0.690341 286.624V285.363L2.8679 283.939H4.15057ZM9.54972 292.811C8.87642 292.809 8.30114 292.631 7.82386 292.279C7.34659 291.926 6.98153 291.414 6.72869 290.74C6.47585 290.067 6.34943 289.256 6.34943 288.307C6.34943 287.361 6.47585 286.553 6.72869 285.882C6.98438 285.212 7.35085 284.701 7.82812 284.348C8.30824 283.996 8.8821 283.82 9.54972 283.82C10.2173 283.82 10.7898 283.997 11.267 284.353C11.7443 284.705 12.1094 285.216 12.3622 285.887C12.6179 286.554 12.7457 287.361 12.7457 288.307C12.7457 289.259 12.6193 290.071 12.3665 290.745C12.1136 291.415 11.7486 291.928 11.2713 292.283C10.794 292.635 10.2202 292.811 9.54972 292.811ZM9.54972 291.674C10.1406 291.674 10.6023 291.385 10.9347 290.809C11.2699 290.232 11.4375 289.398 11.4375 288.307C11.4375 287.583 11.3608 286.97 11.2074 286.47C11.0568 285.968 10.8395 285.587 10.5554 285.328C10.2741 285.067 9.93892 284.936 9.54972 284.936C8.96165 284.936 8.5 285.226 8.16477 285.806C7.82955 286.385 7.66051 287.219 7.65767 288.307C7.65767 289.034 7.73295 289.649 7.88352 290.152C8.03693 290.652 8.25426 291.032 8.53551 291.29C8.81676 291.546 9.15483 291.674 9.54972 291.674ZM15.4464 290.446L15.4379 288.891H15.6594L18.2674 286.121H19.793L16.8185 289.274H16.6183L15.4464 290.446ZM14.2745 292.667V283.939H15.5487V292.667H14.2745ZM18.408 292.667L16.0643 289.556L16.9421 288.665L19.9719 292.667H18.408ZM28.9922 286.232C28.9467 285.828 28.7592 285.516 28.4297 285.294C28.1001 285.07 27.6854 284.958 27.1854 284.958C26.8274 284.958 26.5178 285.015 26.2564 285.128C25.995 285.239 25.7919 285.392 25.647 285.588C25.505 285.782 25.4339 286.002 25.4339 286.249C25.4339 286.456 25.4822 286.635 25.5788 286.786C25.6783 286.936 25.8075 287.063 25.9666 287.165C26.1286 287.265 26.3018 287.348 26.4865 287.417C26.6712 287.482 26.8487 287.536 27.0192 287.578L27.8714 287.8C28.1499 287.868 28.4354 287.961 28.728 288.077C29.0206 288.193 29.2919 288.347 29.5419 288.537C29.7919 288.728 29.9936 288.963 30.147 289.245C30.3033 289.526 30.3814 289.863 30.3814 290.255C30.3814 290.749 30.2536 291.188 29.9979 291.571C29.745 291.955 29.3771 292.257 28.8942 292.479C28.4141 292.701 27.8331 292.811 27.1513 292.811C26.4979 292.811 25.9325 292.708 25.4553 292.5C24.978 292.293 24.6044 291.999 24.3345 291.618C24.0646 291.235 23.9155 290.78 23.8871 290.255H25.2081C25.2337 290.57 25.3359 290.833 25.5149 291.043C25.6967 291.25 25.9283 291.405 26.2095 291.507C26.4936 291.607 26.8047 291.657 27.1428 291.657C27.5149 291.657 27.8459 291.598 28.1357 291.482C28.4283 291.363 28.6584 291.198 28.826 290.988C28.9936 290.774 29.0774 290.526 29.0774 290.242C29.0774 289.983 29.0036 289.772 28.8558 289.607C28.7109 289.442 28.5135 289.306 28.2635 289.198C28.0163 289.09 27.7365 288.995 27.424 288.912L26.3928 288.631C25.6939 288.441 25.1399 288.161 24.7308 287.792C24.3246 287.422 24.1214 286.934 24.1214 286.326C24.1214 285.823 24.2578 285.384 24.5305 285.009C24.8033 284.634 25.1726 284.343 25.6385 284.135C26.1044 283.925 26.63 283.82 27.2152 283.82C27.8061 283.82 28.3274 283.924 28.7791 284.131C29.2337 284.338 29.5916 284.624 29.853 284.988C30.1143 285.348 30.2507 285.763 30.2621 286.232H28.9922ZM32.6218 292.667H31.2241L34.3647 283.939H35.886L39.0266 292.667H37.6289L35.1616 285.524H35.0934L32.6218 292.667ZM32.8562 289.249H37.3903V290.357H32.8562V289.249ZM40.2869 292.667V283.939H43.3977C44.0739 283.939 44.6349 284.056 45.081 284.289C45.5298 284.522 45.8651 284.844 46.0866 285.256C46.3082 285.665 46.419 286.138 46.419 286.675C46.419 287.209 46.3068 287.679 46.0824 288.086C45.8608 288.489 45.5256 288.803 45.0767 289.027C44.6307 289.252 44.0696 289.364 43.3935 289.364H41.0369V288.23H43.2741C43.7003 288.23 44.0469 288.169 44.3139 288.047C44.5838 287.925 44.7812 287.747 44.9062 287.515C45.0312 287.282 45.0938 287.002 45.0938 286.675C45.0938 286.345 45.0298 286.06 44.902 285.818C44.777 285.577 44.5795 285.392 44.3097 285.265C44.0426 285.134 43.6918 285.068 43.2571 285.068H41.6037V292.667H40.2869ZM44.5952 288.729L46.7514 292.667H45.2514L43.1378 288.729H44.5952Z" fill="#A2A6AE"/>
<g filter="url(#filter0_d_1_3910)">
<path d="M63 160.639L113.673 201.965L146.204 214.018L179.986 270.84L217.521 245.012L257.559 160.639L290.716 245.012L323.246 214.018L360.156 245.012L395.19 16L432.1 59.0473H464.63L505.919 160.639H534.071L575.986 146.864L611.645 59.0473L641.673 160.639L680.46 189.911L712.365 270.84L753.028 281.172L783.682 307L821.844 245.012L855 255.343" stroke="#3388E0" stroke-width="2" stroke-linecap="round" stroke-linejoin="round"/>
</g>
<defs>
<filter id="filter0_d_1_3910" x="46" y="7" width="826" height="325" filterUnits="userSpaceOnUse" color-interpolation-filters="sRGB">
<feFlood flood-opacity="0" result="BackgroundImageFix"/>
<feColorMatrix in="SourceAlpha" type="matrix" values="0 0 0 0 0 0 0 0 0 0 0 0 0 0 0 0 0 0 127 0" result="hardAlpha"/>
<feOffset dy="8"/>
<feGaussianBlur stdDeviation="8"/>
<feColorMatrix type="matrix" values="0 0 0 0 0.4 0 0 0 0 0.490196 0 0 0 0 0.941176 0 0 0 0.48 0"/>
<feBlend mode="normal" in2="BackgroundImageFix" result="effect1_dropShadow_1_3910"/>
<feBlend mode="normal" in="SourceGraphic" in2="effect1_dropShadow_1_3910" result="shape"/>
</filter>
</defs>
</svg>
