<svg width="21" height="20" viewBox="0 0 21 20" fill="none" xmlns="http://www.w3.org/2000/svg">
<path fill-rule="evenodd" clip-rule="evenodd" d="M14.4697 0.46967C14.7626 0.176777 15.2374 0.176777 15.5303 0.46967L20.0303 4.96967C20.171 5.11032 20.25 5.30109 20.25 5.5C20.25 5.69891 20.171 5.88968 20.0303 6.03033L15.5303 10.5303C15.2374 10.8232 14.7626 10.8232 14.4697 10.5303C14.1768 10.2374 14.1768 9.76256 14.4697 9.46967L17.6893 6.25L6 6.25C5.58579 6.25 5.25 5.91421 5.25 5.5C5.25 5.08579 5.58579 4.75 6 4.75L17.6893 4.75L14.4697 1.53033C14.1768 1.23744 14.1768 0.762563 14.4697 0.46967ZM6.53033 9.46967C6.82322 9.76256 6.82322 10.2374 6.53033 10.5303L3.31066 13.75H15C15.4142 13.75 15.75 14.0858 15.75 14.5C15.75 14.9142 15.4142 15.25 15 15.25H3.31066L6.53033 18.4697C6.82322 18.7626 6.82322 19.2374 6.53033 19.5303C6.23744 19.8232 5.76256 19.8232 5.46967 19.5303L0.96967 15.0303C0.676777 14.7374 0.676777 14.2626 0.96967 13.9697L5.46967 9.46967C5.76256 9.17678 6.23744 9.17678 6.53033 9.46967Z" fill="#1D2433" fill-opacity="0.65"/>
</svg>
