<svg width="195" height="170" viewBox="0 0 195 170" fill="none" xmlns="http://www.w3.org/2000/svg">
<path opacity="0.3" d="M173.439 -47.8528L173.07 -47.929L172.876 -47.614L85.805 93.5198L85.4426 94.1073L86.1326 94.2359L146.498 105.487L146.86 105.554L147.05 105.246L233.438 -34.7802L233.792 -35.3552L233.12 -35.4943L173.439 -47.8528ZM206.542 176.494C204.947 179.079 201.488 180.004 198.815 178.56L3.53899 73.0519C0.866553 71.608 -0.00696575 68.3417 1.58794 65.7566L114.125 -116.656C115.72 -119.241 119.18 -120.166 121.852 -118.722L317.129 -13.2143C319.801 -11.7704 320.675 -8.50416 319.08 -5.91899L206.542 176.494Z" stroke="url(#paint0_linear_1_3950)"/>
<defs>
<linearGradient id="paint0_linear_1_3950" x1="219.753" y1="-66.3939" x2="112.341" y2="132.405" gradientUnits="userSpaceOnUse">
<stop/>
<stop offset="1" stop-color="#585858" stop-opacity="0"/>
</linearGradient>
</defs>
</svg>
